<svg id="svg" version="1.1" xmlns="http://www.w3.org/2000/svg" xmlns:xlink="http://www.w3.org/1999/xlink" width="400" height="400" viewBox="0, 0, 400,400"><g id="svgg"><path id="path0" d="M132.750 64.518 C 131.925 64.594,130.950 64.733,130.583 64.826 C 130.217 64.919,129.429 65.074,128.833 65.171 C 125.642 65.691,117.790 68.774,116.126 70.160 C 116.011 70.255,115.292 70.749,114.529 71.257 C 113.766 71.765,112.491 72.701,111.696 73.338 C 109.166 75.365,11.262 173.455,9.810 175.417 C 7.481 178.564,5.141 182.607,4.505 184.583 C 4.386 184.950,4.234 185.325,4.165 185.417 C 4.096 185.508,3.765 186.483,3.428 187.583 C 3.092 188.683,2.748 189.808,2.663 190.083 C 1.211 194.810,1.212 205.370,2.664 210.083 C 2.749 210.358,3.055 211.371,3.344 212.333 C 3.634 213.296,3.969 214.308,4.089 214.583 C 4.209 214.858,4.582 215.721,4.917 216.500 C 5.692 218.303,7.482 221.616,7.958 222.132 C 8.073 222.256,8.167 222.408,8.167 222.470 C 8.167 222.532,8.354 222.801,8.584 223.068 C 8.813 223.334,9.000 223.610,9.000 223.681 C 9.000 223.752,9.094 223.910,9.208 224.034 C 9.323 224.157,9.676 224.594,9.992 225.004 C 10.309 225.414,10.759 225.975,10.992 226.250 C 11.605 226.972,110.470 325.837,111.167 326.425 C 112.002 327.128,114.956 329.333,115.065 329.333 C 115.115 329.333,115.665 329.662,116.286 330.063 C 117.633 330.933,121.749 332.937,122.833 333.250 C 123.063 333.316,123.475 333.466,123.750 333.582 C 125.084 334.147,127.965 334.891,130.583 335.349 C 136.043 336.302,143.720 335.860,148.559 334.314 C 149.100 334.142,149.616 334.000,149.705 334.000 C 149.794 334.000,150.103 333.893,150.391 333.761 C 150.680 333.630,151.254 333.411,151.667 333.274 C 155.487 332.009,160.871 328.754,164.244 325.672 C 166.037 324.034,289.996 200.073,289.998 199.916 C 290.000 199.731,261.985 171.667,261.798 171.667 C 261.733 171.667,235.066 198.278,202.536 230.803 C 156.603 276.731,143.162 290.080,142.361 290.567 C 138.786 292.738,134.162 292.419,131.074 289.787 C 128.149 287.295,47.368 206.156,46.730 205.070 C 44.755 201.707,44.927 197.687,47.188 194.389 C 47.590 193.802,128.991 112.250,130.946 110.475 C 133.028 108.585,137.664 107.563,140.000 108.479 C 142.849 109.596,142.295 109.114,153.132 119.908 C 158.659 125.413,163.254 129.917,163.344 129.917 C 163.558 129.917,191.500 101.989,191.500 101.775 C 191.500 101.584,165.353 75.466,163.995 74.300 C 163.494 73.870,162.858 73.325,162.583 73.089 C 162.308 72.853,161.783 72.456,161.417 72.206 C 161.050 71.956,160.712 71.712,160.667 71.665 C 160.351 71.338,155.327 68.333,155.096 68.333 C 155.049 68.333,154.614 68.154,154.130 67.935 C 152.242 67.082,151.726 66.868,151.083 66.676 C 150.717 66.566,150.267 66.410,150.083 66.328 C 146.791 64.857,138.464 63.987,132.750 64.518 " stroke="none" fill="#fcfcfc" fill-rule="evenodd"></path><path id="path1" d="M259.667 64.185 C 256.191 64.582,255.378 64.704,253.637 65.092 C 251.781 65.507,248.472 66.560,247.000 67.205 C 243.208 68.867,240.435 70.512,237.450 72.869 C 235.741 74.219,110.012 199.719,110.004 200.084 C 109.999 200.295,138.124 228.429,138.236 228.326 C 138.282 228.284,164.966 201.619,197.535 169.071 C 230.103 136.522,257.055 109.699,257.428 109.463 C 260.353 107.617,263.908 107.463,267.158 109.043 L 268.583 109.735 310.583 151.745 C 356.721 197.892,353.600 194.630,354.328 197.480 C 355.000 200.111,354.378 203.592,352.892 205.524 C 352.116 206.532,268.356 290.132,267.917 290.336 C 267.642 290.464,267.304 290.656,267.167 290.763 C 265.940 291.715,261.956 292.082,259.917 291.431 C 257.445 290.642,257.463 290.658,246.746 279.974 C 241.243 274.488,236.668 270.000,236.579 270.000 C 236.337 270.000,208.500 297.883,208.500 298.125 C 208.500 298.239,214.371 304.201,221.546 311.375 C 234.262 324.086,236.188 325.973,237.331 326.833 C 237.636 327.063,238.132 327.438,238.434 327.667 C 241.722 330.163,245.587 332.186,249.667 333.546 C 251.877 334.283,252.555 334.471,254.000 334.747 C 254.779 334.895,255.754 335.088,256.167 335.175 C 259.231 335.819,265.687 335.805,269.333 335.148 C 271.657 334.729,274.716 333.986,275.417 333.671 C 275.600 333.588,275.938 333.471,276.167 333.409 C 279.087 332.624,284.847 329.402,288.333 326.604 C 289.774 325.448,387.519 227.767,388.850 226.153 C 389.335 225.565,389.774 225.046,389.825 225.000 C 390.131 224.726,392.667 221.093,392.667 220.928 C 392.667 220.880,392.911 220.445,393.211 219.962 C 399.131 210.402,400.159 195.495,395.633 184.833 C 395.458 184.421,395.190 183.783,395.038 183.417 C 394.247 181.516,391.903 177.392,391.217 176.696 C 391.098 176.575,391.000 176.412,391.000 176.333 C 391.000 176.255,390.906 176.090,390.792 175.966 C 390.677 175.843,390.324 175.406,390.008 174.996 C 389.691 174.586,389.204 173.987,388.926 173.667 C 388.648 173.346,366.295 150.934,339.252 123.862 C 291.447 76.006,287.522 72.147,285.636 71.154 C 285.424 71.042,285.212 70.904,285.167 70.848 C 284.692 70.264,279.221 67.469,277.000 66.675 C 276.679 66.560,276.267 66.404,276.083 66.329 C 272.184 64.720,264.164 63.673,259.667 64.185 " stroke="none" fill="#9cecc4" fill-rule="evenodd"></path><path id="path2" d="" stroke="none" fill="#e4f4100" fill-rule="evenodd"></path><path id="path3" d="" stroke="none" fill="#e4f4100" fill-rule="evenodd"></path><path id="path4" d="" stroke="none" fill="#e4f4100" fill-rule="evenodd"></path></g></svg>