<?xml version="1.0" encoding="UTF-8"?>
<!DOCTYPE svg PUBLIC "-//W3C//DTD SVG 1.1//EN" "http://www.w3.org/Graphics/SVG/1.1/DTD/svg11.dtd">
<!-- Creator: CorelDRAW 2021 (64-Bit) -->
<svg xmlns="http://www.w3.org/2000/svg" xml:space="preserve" width="297mm" height="210mm" version="1.1" style="shape-rendering:geometricPrecision; text-rendering:geometricPrecision; image-rendering:optimizeQuality; fill-rule:evenodd; clip-rule:evenodd"
viewBox="0 0 29700 21000"
 xmlns:xlink="http://www.w3.org/1999/xlink"
 xmlns:xodm="http://www.corel.com/coreldraw/odm/2003">
 <defs>
  <style type="text/css">
   <![CDATA[
    .fil11 {fill:none}
    .fil1 {fill:#FEFEFE}
    .fil3 {fill:#FEFEFE}
    .fil6 {fill:#0E2352}
    .fil4 {fill:#1E0000}
    .fil0 {fill:#A81010}
    .fil8 {fill:#AE0000}
    .fil13 {fill:#B22234}
    .fil7 {fill:#E55B00}
    .fil10 {fill:#E55B00}
    .fil9 {fill:#FF7F00}
    .fil12 {fill:#FEFEFE;fill-rule:nonzero}
    .fil5 {fill:#FEFEFE;fill-rule:nonzero}
    .fil2 {fill:#0E2352;fill-rule:nonzero}
   ]]>
  </style>
    <clipPath id="id0">
     <path d="M13917.95 7725.28c120,-165.96 304.7,-404.47 436.7,-640.26 86.46,-154.44 150.33,-307.75 158.62,-438.77 8.52,-134.48 2.64,-125.9 258.23,-132.25 42.82,-1.06 82.87,0.21 82.87,52.82l0 3486.23c0,62.21 -125.83,35.37 -247.62,35.37 -220.86,0 -739.72,3.26 -958.49,23.4 -164.38,-147.55 -220.13,-343.24 -262.47,-538.07 -146.08,-671.83 121.12,-1298.64 532.16,-1848.47zm606.26 -1339.28c-98.47,-165.08 -141.47,-265.17 -332.45,-348.41 208.95,-71.45 431.5,-113.6 662.7,-121.55 -1.32,405.81 30.57,443.16 -83.79,449.57 -87.7,4.92 -165.62,12.76 -246.46,20.39zm-209.16 -49.81c53.94,86.44 53.84,70.97 -160.53,128.19 -509.7,136.05 -1120.45,576.2 -1399.8,1024.86 196.78,-595.31 630.59,-1082.74 1189.67,-1350.52 127.78,7.58 300.47,84.93 370.66,197.47zm-76.88 272.63c50.1,-14.93 89.9,-22.98 104.77,-17.14 22.36,8.8 18.63,52.28 3.08,107.65 -25.09,89.31 -74.75,194.71 -131.69,300.82 -148.15,275.97 -393.92,500.05 -640.83,920.03 -364.3,619.64 -474.75,1184.08 -293.29,1881.42 -436.33,-453.6 -665.18,-1059.67 -639.02,-1688.19 243.25,-722.93 870.78,-1288.51 1596.98,-1504.59zm1713.51 1116.46c-120,-165.96 -304.7,-404.47 -436.7,-640.26 -86.46,-154.44 -150.33,-307.75 -158.62,-438.77 -8.52,-134.48 -2.64,-125.9 -258.23,-132.25 -42.82,-1.06 -82.87,0.21 -82.87,52.82l0 3486.23c0,62.21 125.83,35.37 247.62,35.37 220.86,0 739.72,3.26 958.49,23.4 164.38,-147.55 220.13,-343.24 262.47,-538.07 146.08,-671.83 -121.12,-1298.64 -532.16,-1848.47zm-606.26 -1339.28c98.47,-165.08 141.47,-265.17 332.45,-348.41 -208.95,-71.45 -431.5,-113.6 -662.7,-121.55 1.32,405.81 -30.57,443.16 83.79,449.57 87.7,4.92 165.62,12.76 246.46,20.39zm209.16 -49.81c-53.94,86.44 -53.84,70.97 160.53,128.19 509.7,136.05 1120.45,576.2 1399.8,1024.86 -196.78,-595.31 -630.59,-1082.74 -1189.67,-1350.52 -127.78,7.58 -300.47,84.93 -370.66,197.47zm76.88 272.63c-50.1,-14.93 -89.9,-22.98 -104.77,-17.14 -22.36,8.8 -18.63,52.28 -3.08,107.65 25.09,89.31 74.75,194.71 131.69,300.82 148.15,275.97 393.92,500.05 640.83,920.03 364.3,619.64 474.75,1184.08 293.29,1881.42 436.33,-453.6 665.18,-1059.67 639.02,-1688.19 -243.25,-722.93 -870.78,-1288.51 -1596.98,-1504.59z"/>
    </clipPath>
     <clipPath id="id1">
      <path d="M13280.21 9801.6c-28.35,-108.95 -49.58,-214.66 -63.82,-317.86 -1.43,-10.32 -2.78,-20.61 -4.07,-30.88 -3.86,-30.81 -7.08,-61.39 -9.69,-91.78 -4.34,-50.64 -6.95,-100.72 -7.85,-150.33 -0.18,-9.92 -0.29,-19.82 -0.33,-29.71 -0.04,-9.88 -0.01,-19.75 0.08,-29.6 0.1,-9.85 0.25,-19.68 0.48,-29.5 0.23,-9.82 0.53,-19.62 0.9,-29.4 0.36,-9.78 0.8,-19.55 1.3,-29.3 0.5,-9.75 1.07,-19.49 1.71,-29.21 0.63,-9.72 1.34,-19.43 2.11,-29.12 0.77,-9.69 1.61,-19.37 2.52,-29.04 1.81,-19.33 3.9,-38.61 6.25,-57.85 1.18,-9.62 2.42,-19.23 3.73,-28.82 2.62,-19.19 5.51,-38.34 8.66,-57.45 1.58,-9.56 3.23,-19.09 4.94,-28.63 1.71,-9.53 3.49,-19.06 5.33,-28.58 1.85,-9.51 3.74,-19.04 5.72,-28.54 1.97,-9.5 4.02,-19 6.13,-28.49 2.11,-9.49 4.28,-18.97 6.52,-28.45 2.24,-9.48 4.55,-18.94 6.92,-28.41 2.37,-9.46 4.81,-18.93 7.31,-28.39 2.5,-9.46 5.07,-18.9 7.7,-28.35 2.64,-9.45 5.34,-18.9 8.1,-28.34 2.77,-9.44 5.59,-18.87 8.49,-28.31 2.89,-9.43 5.85,-18.88 8.88,-28.31 3.02,-9.43 6.11,-18.86 9.27,-28.29 3.16,-9.43 6.38,-18.86 9.66,-28.29 3.29,-9.43 6.64,-18.85 10.05,-28.28 3.42,-9.43 6.89,-18.86 10.43,-28.29 3.54,-9.43 7.16,-18.87 10.83,-28.3 3.67,-9.43 7.4,-18.87 11.2,-28.31 3.8,-9.44 7.67,-18.88 11.6,-28.33 3.93,-9.45 7.92,-18.89 11.98,-28.34 4.06,-9.45 8.18,-18.91 12.36,-28.37 4.18,-9.46 8.43,-18.94 12.74,-28.41 4.31,-9.47 8.68,-18.95 13.12,-28.43 4.43,-9.48 8.95,-18.97 13.51,-28.47 4.56,-9.49 9.19,-19.01 13.88,-28.52 4.69,-9.51 9.44,-19.03 14.26,-28.56 4.82,-9.53 9.71,-19.06 14.65,-28.61 4.95,-9.55 9.94,-19.1 15.01,-28.66 5.06,-9.57 10.21,-19.14 15.4,-28.73 5.19,-9.59 10.45,-19.18 15.77,-28.79 5.31,-9.61 10.7,-19.22 16.14,-28.85 5.45,-9.63 10.95,-19.27 16.52,-28.93 5.57,-9.66 11.2,-19.33 16.89,-29.01 3.85,-6.57 7.71,-13.07 11.57,-19.54 3.86,-6.47 7.71,-12.9 11.57,-19.27l11.56 -18.98 11.56 -18.72 11.54 -18.45 11.53 -18.2 11.52 -17.94 11.5 -17.69 11.48 -17.46 11.46 -17.21 11.43 -16.99 11.41 -16.76 11.38 -16.54 11.35 -16.33 11.32 -16.13 11.28 -15.92 11.25 -15.72 11.2 -15.53 11.17 -15.35 11.12 -15.17 11.08 -15 11.02 -14.82 10.98 -14.67 10.92 -14.51 10.88 -14.36 10.81 -14.21 10.75 -14.07 10.7 -13.94 10.62 -13.82 21.06 -27.26 10.43 -13.46 10.35 -13.35 10.28 -13.26 10.2 -13.16 30.13 -38.98 9.87 -12.84 9.79 -12.78 9.69 -12.71c6.43,-8.45 12.8,-16.89 19.11,-25.28l9.41 -12.57 9.32 -12.53 9.21 -12.5c6.1,-8.33 12.14,-16.63 18.11,-24.93l8.9 -12.44 8.78 -12.43c8.73,-12.42 17.3,-24.85 25.68,-37.29l8.32 -12.45 8.21 -12.47c24.42,-37.45 47.19,-75.23 68.02,-114.04l10.59 -19.88c6.12,-11.58 12.13,-23.15 18.04,-34.69l2.52 -4.94 2.5 -4.93 2.49 -4.93 2.47 -4.92 7.32 -14.73 2.4 -4.89 2.39 -4.89 2.37 -4.88 2.35 -4.87 2.33 -4.86 2.3 -4.85 4.56 -9.68 2.25 -4.82 2.23 -4.81 6.54 -14.37 2.14 -4.77 2.11 -4.75 4.16 -9.47 2.04 -4.72 2.01 -4.7 2 -4.69 1.96 -4.67 1.94 -4.66 1.91 -4.64 1.89 -4.63 1.86 -4.61 1.83 -4.6 1.8 -4.58 1.77 -4.56 1.75 -4.54 1.72 -4.53 1.68 -4.51 1.66 -4.49 1.62 -4.47 1.6 -4.46 1.56 -4.43 1.54 -4.42 1.5 -4.39 1.46 -4.37 1.44 -4.36 1.4 -4.33 1.37 -4.31 1.33 -4.29 1.3 -4.27 1.27 -4.24 1.23 -4.22 1.19 -4.2 0.72 -2.59 0.7 -2.57 0.69 -2.55 1.31 -5.04 0.63 -2.49 0.61 -2.47 0.59 -2.45 0.57 -2.43 0.55 -2.41 0.53 -2.38 0.51 -2.36 0.95 -4.65c0.61,-3.07 1.15,-6.07 1.64,-9l0.68 -4.34 0.31 -2.13 0.28 -2.1c0.45,-3.48 0.79,-6.84 1.03,-10.06l0.13 -1.92 0.1 -1.88 0.08 -1.86 0.07 -3.61 -0.01 -1.75 -0.03 -1.72c-0.13,-4.44 -0.56,-8.53 -1.29,-12.21l-0.34 -1.62 -0.6 -2.28 -0.19 -0.67c-0.45,-1.47 -0.96,-2.85 -1.54,-4.15 -0.48,-1.09 -1.01,-2.12 -1.59,-3.09 -1.08,-1.8 -2.32,-3.4 -3.74,-4.76 -1.84,-1.76 -3.98,-3.14 -6.42,-4.1 -0.89,-0.35 -1.86,-0.65 -2.92,-0.9l-0.32 -0.07c-1.04,-0.24 -2.17,-0.43 -3.37,-0.58l-0.21 -0.02c-1.93,-0.22 -4.06,-0.34 -6.37,-0.35 -1.96,0 -4.06,0.06 -6.27,0.2l-2.72 0.2 -2.84 0.27 -1.46 0.16 -4.56 0.58 -6.46 0.99 -1.68 0.29 -1.71 0.3 -1.73 0.32 -1.76 0.33 -1.78 0.35 -1.81 0.36 -1.83 0.38 -2.19 0.46 -3.1 0.68 -0.7 0.15 -3.15 0.72 -2.81 0.65 -3.04 0.73 -2.52 0.62 -2.05 0.51 -4.17 1.06 -4.25 1.11 -3.86 1.04 -1.06 0.28c-7.09,1.93 -14.46,4.04 -22.08,6.31 -41.35,12.3 -82.38,25.79 -123.04,40.34 -19.45,6.96 -38.82,14.15 -58.09,21.61 -13.33,5.17 -26.62,10.42 -39.87,15.82 -7.71,3.14 -15.42,6.31 -23.1,9.53 -15.29,6.4 -30.51,12.97 -45.67,19.68 -25,11.07 -49.85,22.52 -74.48,34.43 -21.37,10.33 -42.6,20.97 -63.67,31.91 -10.53,5.47 -21.03,11.02 -31.49,16.64 -10.46,5.62 -20.88,11.32 -31.26,17.09 -20.76,11.55 -41.36,23.39 -61.78,35.52 -10.21,6.07 -20.38,12.2 -30.51,18.41 -10.13,6.21 -20.21,12.5 -30.25,18.85 -40.16,25.41 -79.59,51.97 -118.24,79.63 -28.99,20.74 -57.53,42.1 -85.6,64.05 -9.36,7.32 -18.67,14.7 -27.92,22.15 -18.5,14.9 -36.79,30.06 -54.86,45.48 -27.1,23.13 -53.7,46.83 -79.77,71.09 -26.06,24.26 -51.6,49.08 -76.58,74.43 -8.33,8.45 -16.59,16.96 -24.79,25.53 -57.4,59.99 -111.71,122.87 -162.53,188.38 -7.26,9.36 -14.45,18.77 -21.57,28.24 -28.47,37.86 -55.78,76.57 -81.88,116.09 -13.05,19.76 -25.79,39.72 -38.22,59.87 -18.65,30.23 -36.58,60.89 -53.78,91.98 -22.93,41.45 -44.56,83.64 -64.8,126.53 -10.12,21.45 -19.9,43.06 -29.32,64.85 -4.71,10.9 -9.34,21.82 -13.87,32.8 -9.07,21.95 -17.78,44.07 -26.12,66.35 -4.17,11.14 -8.25,22.32 -12.24,33.54 -3.98,11.22 -7.88,22.47 -11.68,33.77 -0.41,9.82 -0.75,19.63 -1.04,29.44 -0.29,9.8 -0.51,19.61 -0.67,29.41 -0.16,9.8 -0.25,19.59 -0.29,29.37 -0.04,9.78 -0.02,19.56 0.07,29.33 0.09,9.77 0.24,19.54 0.45,29.29 0.21,9.75 0.48,19.49 0.81,29.23 0.34,9.73 0.73,19.47 1.18,29.19 0.45,9.72 0.96,19.43 1.54,29.13 0.58,9.7 1.21,19.39 1.91,29.07 0.69,9.68 1.45,19.36 2.27,29.02 0.81,9.66 1.7,19.31 2.64,28.95 0.93,9.64 1.94,19.27 3,28.89 1.06,9.62 2.18,19.23 3.36,28.82 1.18,9.6 2.41,19.17 3.71,28.74 1.29,9.57 2.66,19.13 4.08,28.67 1.42,9.55 2.89,19.08 4.43,28.6 1.54,9.51 3.14,19.02 4.79,28.51 1.65,9.49 3.38,18.97 5.15,28.43 1.78,9.46 3.6,18.92 5.49,28.35 1.89,9.43 3.84,18.85 5.85,28.25 4.02,18.8 8.27,37.55 12.76,56.23 2.24,9.34 4.54,18.66 6.9,27.97 2.36,9.31 4.78,18.6 7.26,27.87 2.48,9.27 5.01,18.52 7.6,27.76 2.6,9.24 5.23,18.46 7.94,27.66 2.71,9.2 5.47,18.38 8.29,27.54 2.82,9.16 5.7,18.31 8.64,27.43 2.94,9.13 5.92,18.23 8.97,27.32 3.05,9.09 6.16,18.15 9.32,27.2 3.16,9.04 6.39,18.07 9.67,27.07 3.28,9.01 6.61,17.99 10,26.95 3.39,8.96 6.84,17.9 10.34,26.82 3.5,8.92 7.05,17.82 10.67,26.69 3.61,8.88 7.29,17.73 11.02,26.56 3.73,8.83 7.51,17.64 11.35,26.42 3.84,8.78 7.73,17.54 11.68,26.28 3.95,8.74 7.96,17.44 12.02,26.13 4.06,8.69 8.18,17.35 12.35,25.99 12.51,25.91 25.53,51.61 39.03,77.07 9,16.97 18.22,33.83 27.66,50.59 4.72,8.38 9.49,16.73 14.32,25.05 4.82,8.32 9.7,16.62 14.64,24.89 4.94,8.27 9.93,16.5 14.97,24.71 10.08,16.42 20.38,32.72 30.9,48.91 5.26,8.09 10.57,16.16 15.93,24.19 10.73,16.07 21.67,32.01 32.82,47.83 22.3,31.64 45.45,62.77 69.43,93.38 47.97,61.21 99.27,120.29 153.81,176.99zm1195.37 -2979.22c1.54,-4.56 3.04,-9.11 4.5,-13.65 1.46,-4.54 2.88,-9.06 4.25,-13.57 1.37,-4.51 2.7,-9 3.99,-13.49 1.29,-4.48 2.53,-8.95 3.73,-13.39 1.8,-6.67 3.5,-13.31 5.1,-19.92l1.56 -6.59 1.49 -6.56 1.42 -6.54 1.34 -6.51c2.18,-10.83 4.07,-21.55 5.64,-32.15l0.9 -6.34c0.58,-4.22 1.09,-8.42 1.57,-12.6l0.67 -6.25 0.59 -6.22 0.51 -6.19 0.43 -6.16 0.39 -6.2 0.37 -5.99 0.37 -5.79 0.37 -5.6 0.36 -5.39 0.38 -5.21 0.4 -5.02 0.42 -4.83c0.29,-3.16 0.6,-6.2 0.93,-9.13 0.5,-4.39 1.07,-8.52 1.73,-12.4l0.69 -3.81 0.76 -3.64 0.83 -3.49 0.91 -3.34 1 -3.19c0.69,-2.08 1.45,-4.06 2.28,-5.95l1.29 -2.77c0.9,-1.8 1.87,-3.51 2.93,-5.14 1.06,-1.63 2.2,-3.17 3.43,-4.63 3.07,-3.66 6.72,-6.82 11.06,-9.56 1.74,-1.1 3.59,-2.13 5.56,-3.09 1.97,-0.97 4.07,-1.87 6.29,-2.72 2.22,-0.85 4.57,-1.64 7.06,-2.37 2.49,-0.74 5.11,-1.42 7.88,-2.05 2.77,-0.63 5.69,-1.22 8.76,-1.76 6.14,-1.09 12.91,-2 20.35,-2.78l5.71 -0.56 5.98 -0.51c6.11,-0.49 12.62,-0.91 19.57,-1.29l7.09 -0.36 15.07 -0.64c7.84,-0.3 16.15,-0.56 24.93,-0.81l18.24 -0.48c22.06,-0.55 46.88,-1.07 74.85,-1.75l2 -0.05 2 -0.04 7.94 -0.11 1.95 0 5.83 0.06 3.82 0.11 1.89 0.08c3.77,0.18 7.44,0.47 10.99,0.9l3.51 0.49 1.72 0.28 1.7 0.31 1.68 0.34c1.66,0.35 3.29,0.76 4.88,1.21l1.57 0.47c1.04,0.32 2.06,0.67 3.06,1.04l1.49 0.58 1.45 0.61c0.96,0.42 1.9,0.87 2.82,1.35 1.83,0.95 3.58,2.01 5.23,3.2l1.22 0.92 1.18 0.96c0.77,0.65 1.52,1.34 2.25,2.06l1.06 1.11 1.02 1.16c0.67,0.79 1.32,1.62 1.93,2.48 0.61,0.86 1.18,1.76 1.74,2.7l0.81 1.44 0.76 1.49 0.72 1.55 0.66 1.62 0.62 1.67 0.57 1.74 0.52 1.8 0.47 1.87 0.41 1.94 0.36 2 0.31 2.07 0.26 2.14 0.2 2.21 0.14 2.28 0.09 2.35 0.03 2.43 0 3486.23c0,0.97 -0.03,1.92 -0.09,2.85 -0.06,0.93 -0.15,1.84 -0.27,2.72 -0.12,0.89 -0.28,1.75 -0.46,2.6 -0.18,0.85 -0.38,1.67 -0.62,2.48 -0.24,0.81 -0.5,1.59 -0.8,2.36 -0.29,0.77 -0.62,1.5 -0.97,2.23 -0.35,0.73 -0.74,1.44 -1.14,2.13 -0.41,0.69 -0.83,1.36 -1.29,2.01 -0.46,0.65 -0.95,1.29 -1.46,1.9 -0.51,0.62 -1.05,1.22 -1.62,1.8 -0.56,0.58 -1.16,1.15 -1.77,1.69l-1.93 1.6 -2.07 1.49c-1.43,0.96 -2.95,1.86 -4.57,2.7l-2.5 1.21 -2.64 1.13 -2.77 1.04 -2.9 0.95 -3.03 0.88 -3.15 0.8c-2.14,0.51 -4.38,0.97 -6.68,1.38l-3.51 0.58 -3.62 0.52 -3.73 0.45 -3.84 0.39c-2.59,0.24 -5.26,0.44 -7.99,0.61l-4.15 0.22c-5.59,0.26 -11.44,0.39 -17.5,0.41l-9.26 -0.05c-9.41,-0.12 -19.3,-0.45 -29.54,-0.9l-5.15 -0.23 -5.2 -0.25c-34.86,-1.71 -73.3,-4.33 -111.4,-4.33 -58.67,0 -138.36,0.23 -227.87,0.95l-15.89 0.13c-26.65,0.23 -54.11,0.5 -82.06,0.82l-50.8 0.63 -51.53 0.75 -51.88 0.87 -17.31 0.32c-17.3,0.33 -34.59,0.67 -51.78,1.05l-17.17 0.38 -17.5 0.41 -33.1 0.83 -0.86 0.02 -33.05 0.9 -16.54 0.49 -16.39 0.5 -32.27 1.06 -15.85 0.56c-31.5,1.14 -61.75,2.39 -90.28,3.77l-27.93 1.43c-18.21,0.98 -35.57,2.01 -51.95,3.11 -20.47,1.37 -39.39,2.84 -56.48,4.42 -5.14,-4.61 -10.17,-9.27 -15.1,-13.97 -9.85,-9.41 -19.3,-19 -28.35,-28.76 -4.53,-4.88 -8.96,-9.8 -13.29,-14.76l-6.43 -7.48c-10.6,-12.51 -20.62,-25.27 -30.11,-38.26 -7.59,-10.39 -14.83,-20.93 -21.76,-31.6l-5.13 -8.03 -5.02 -8.08 -4.9 -8.12 -4.79 -8.18c-3.15,-5.46 -6.23,-10.96 -9.24,-16.48l-4.46 -8.31 -4.36 -8.35 -4.25 -8.39 -4.16 -8.43 -4.05 -8.47 -3.96 -8.51 -3.87 -8.54 -3.77 -8.59c-2.49,-5.73 -4.91,-11.49 -7.28,-17.26 -3.55,-8.67 -6.98,-17.38 -10.29,-26.14 -2.21,-5.84 -4.37,-11.69 -6.47,-17.57l-3.12 -8.83 -3.05 -8.85 -2.98 -8.88 -2.91 -8.9 -2.84 -8.92 -2.78 -8.94c-1.83,-5.97 -3.64,-11.95 -5.39,-17.95l-2.6 -9 -2.55 -9.02 -2.5 -9.03 -2.45 -9.05 -2.4 -9.06 -2.36 -9.07 -2.31 -9.09 -2.27 -9.09 -2.23 -9.1 -2.19 -9.11 -2.16 -9.12 -2.13 -9.12 -2.09 -9.13 -2.07 -9.13 -2.04 -9.13 -2.02 -9.14 -1.99 -9.13c-2.28,-10.5 -4.46,-20.98 -6.55,-31.46 -2.08,-10.48 -4.05,-20.94 -5.94,-31.39 -1.88,-10.45 -3.68,-20.9 -5.36,-31.33 -1.69,-10.43 -3.26,-20.84 -4.76,-31.25 -1.49,-10.41 -2.9,-20.8 -4.19,-31.19 -1.3,-10.38 -2.5,-20.76 -3.61,-31.12 -1.11,-10.36 -2.12,-20.71 -3.04,-31.05 -0.92,-10.34 -1.75,-20.65 -2.48,-30.97 -0.73,-10.31 -1.38,-20.63 -1.93,-30.91 -0.55,-10.29 -1.01,-20.57 -1.37,-30.83 -0.37,-10.27 -0.64,-20.52 -0.83,-30.76 -0.19,-10.24 -0.29,-20.47 -0.3,-30.69 -0.01,-10.22 0.07,-20.42 0.24,-30.61 0.17,-10.19 0.42,-20.36 0.76,-30.53 0.34,-10.17 0.78,-20.32 1.29,-30.46 0.51,-10.14 1.1,-20.27 1.79,-30.38 0.68,-10.11 1.45,-20.23 2.3,-30.31 1.7,-20.18 3.74,-40.3 6.1,-60.37 1.18,-10.04 2.44,-20.06 3.79,-30.07 1.34,-10.01 2.76,-19.99 4.26,-29.98 1.5,-9.98 3.09,-19.96 4.75,-29.91 1.66,-9.95 3.4,-19.9 5.21,-29.82 3.63,-19.85 7.57,-39.65 11.81,-59.4 2.12,-9.87 4.31,-19.73 6.58,-29.57 2.27,-9.84 4.61,-19.67 7.03,-29.49 2.42,-9.81 4.91,-19.61 7.47,-29.4 2.56,-9.79 5.2,-19.56 7.9,-29.31 2.71,-9.76 5.48,-19.5 8.33,-29.23 2.85,-9.73 5.76,-19.44 8.75,-29.14 2.99,-9.7 6.04,-19.39 9.16,-29.06 3.12,-9.67 6.31,-19.32 9.57,-28.96 9.77,-28.92 20.15,-57.7 31.1,-86.34 3.65,-9.55 7.36,-19.08 11.14,-28.6 3.78,-9.52 7.62,-19.02 11.52,-28.5 3.9,-9.49 7.86,-18.96 11.89,-28.41 12.07,-28.36 24.7,-56.59 37.83,-84.67 13.14,-28.07 26.8,-56 40.95,-83.79 9.43,-18.52 19.09,-36.99 28.95,-55.37 4.93,-9.19 9.91,-18.37 14.95,-27.53 5.03,-9.16 10.12,-18.32 15.26,-27.44 10.27,-18.25 20.77,-36.44 31.43,-54.56 5.33,-9.06 10.72,-18.1 16.15,-27.12 10.86,-18.05 21.92,-36.03 33.15,-53.94 5.62,-8.95 11.29,-17.89 16.99,-26.81 5.71,-8.92 11.46,-17.83 17.25,-26.71 5.79,-8.88 11.63,-17.75 17.51,-26.6 5.88,-8.85 11.8,-17.68 17.77,-26.49 11.92,-17.62 24.02,-35.17 36.27,-52.65 6.12,-8.74 12.29,-17.47 18.49,-26.17 12.41,-17.41 24.97,-34.73 37.67,-51.99 6.35,-8.63 12.73,-17.24 19.16,-25.83l5.67 -7.83 5.77 -7.94 5.85 -8.04 5.94 -8.14 6.02 -8.24 6.11 -8.34 6.18 -8.43 6.26 -8.53 6.34 -8.62 6.4 -8.71 6.47 -8.8 6.54 -8.89 6.6 -8.97 6.66 -9.06 6.72 -9.14 6.77 -9.22 6.82 -9.3 6.87 -9.37 6.92 -9.45 6.96 -9.53 7.01 -9.59 7.04 -9.67 7.07 -9.73 7.11 -9.8 14.31 -19.8 7.2 -9.99 7.21 -10.05 7.24 -10.11 7.25 -10.16 7.26 -10.22 7.28 -10.27 7.29 -10.33 7.29 -10.37 14.59 -20.89c7.29,-10.49 14.6,-21.04 21.87,-31.65l7.27 -10.64 7.26 -10.67 7.24 -10.7 7.23 -10.74 14.39 -21.58 7.15 -10.83 7.13 -10.86c7.11,-10.87 14.18,-21.78 21.18,-32.72 4.67,-7.29 9.32,-14.6 13.93,-21.92 27.68,-43.9 54.26,-88.2 79.04,-132.42 4.05,-7.24 8.06,-14.48 12,-21.71 5.27,-9.64 10.44,-19.28 15.51,-28.9 3.8,-7.22 7.55,-14.42 11.23,-21.62 8.2,-16.02 16.09,-32 23.65,-47.9l4.46 -9.44 3.31 -7.13 3.26 -7.11 4.2 -9.29 5.3 -11.99 3.97 -9.18 5.08 -11.98 2.91 -7.02c1.92,-4.68 3.81,-9.35 5.66,-14.01l2.75 -6.98 2.69 -6.96 2.63 -6.95 2.58 -6.93 2.52 -6.91c1.66,-4.6 3.28,-9.19 4.87,-13.77l2.34 -6.86zm918.47 0c-1.54,-4.56 -3.04,-9.11 -4.5,-13.65 -1.46,-4.54 -2.88,-9.06 -4.25,-13.57 -1.37,-4.51 -2.7,-9 -3.99,-13.49 -1.29,-4.48 -2.53,-8.95 -3.73,-13.39 -1.8,-6.67 -3.5,-13.31 -5.1,-19.92l-1.56 -6.59 -1.49 -6.56 -1.42 -6.54 -1.34 -6.51c-2.18,-10.83 -4.07,-21.55 -5.64,-32.15l-0.9 -6.34c-0.58,-4.22 -1.09,-8.42 -1.57,-12.6l-0.67 -6.25 -0.59 -6.22 -0.51 -6.19 -0.43 -6.16 -0.39 -6.2 -0.37 -5.99 -0.37 -5.79 -0.37 -5.6 -0.36 -5.39 -0.38 -5.21 -0.4 -5.02 -0.42 -4.83c-0.29,-3.16 -0.6,-6.2 -0.93,-9.13 -0.5,-4.39 -1.07,-8.52 -1.73,-12.4l-0.69 -3.81 -0.76 -3.64 -0.83 -3.49 -0.91 -3.34 -1 -3.19c-0.69,-2.08 -1.45,-4.06 -2.28,-5.95l-1.29 -2.77c-0.9,-1.8 -1.87,-3.51 -2.93,-5.14 -1.06,-1.63 -2.2,-3.17 -3.43,-4.63 -3.07,-3.66 -6.72,-6.82 -11.06,-9.56 -1.74,-1.1 -3.59,-2.13 -5.56,-3.09 -1.97,-0.97 -4.07,-1.87 -6.29,-2.72 -2.22,-0.85 -4.57,-1.64 -7.06,-2.37 -2.49,-0.74 -5.11,-1.42 -7.88,-2.05 -2.77,-0.63 -5.69,-1.22 -8.76,-1.76 -6.14,-1.09 -12.91,-2 -20.35,-2.78l-5.71 -0.56 -5.98 -0.51c-6.11,-0.49 -12.62,-0.91 -19.57,-1.29l-7.09 -0.36 -15.07 -0.64c-7.84,-0.3 -16.15,-0.56 -24.93,-0.81l-18.24 -0.48c-22.06,-0.55 -46.88,-1.07 -74.85,-1.75l-2 -0.05 -2 -0.04 -7.94 -0.11 -1.95 0 -5.83 0.06 -3.82 0.11 -1.89 0.08c-3.77,0.18 -7.44,0.47 -10.99,0.9l-3.51 0.49 -1.72 0.28 -1.7 0.31 -1.68 0.34c-1.66,0.35 -3.29,0.76 -4.88,1.21l-1.57 0.47c-1.04,0.32 -2.06,0.67 -3.06,1.04l-1.49 0.58 -1.45 0.61c-0.96,0.42 -1.9,0.87 -2.82,1.35 -1.83,0.95 -3.58,2.01 -5.23,3.2l-1.22 0.92 -1.18 0.96c-0.77,0.65 -1.52,1.34 -2.25,2.06l-1.06 1.11 -1.02 1.16c-0.67,0.79 -1.32,1.62 -1.93,2.48 -0.61,0.86 -1.18,1.76 -1.74,2.7l-0.81 1.44 -0.76 1.49 -0.72 1.55 -0.66 1.62 -0.62 1.67 -0.57 1.74 -0.52 1.8 -0.47 1.87 -0.41 1.94 -0.36 2 -0.31 2.07 -0.26 2.14 -0.2 2.21 -0.14 2.28 -0.09 2.35 -0.03 2.43 0 3486.23c0,0.97 0.03,1.92 0.09,2.85 0.06,0.93 0.15,1.84 0.27,2.72 0.12,0.89 0.28,1.75 0.46,2.6 0.18,0.85 0.38,1.67 0.62,2.48 0.24,0.81 0.5,1.59 0.8,2.36 0.29,0.77 0.62,1.5 0.97,2.23 0.35,0.73 0.74,1.44 1.14,2.13 0.41,0.69 0.83,1.36 1.29,2.01 0.46,0.65 0.95,1.29 1.46,1.9 0.51,0.62 1.05,1.22 1.62,1.8 0.56,0.58 1.16,1.15 1.77,1.69l1.93 1.6 2.07 1.49c1.43,0.96 2.95,1.86 4.57,2.7l2.5 1.21 2.64 1.13 2.77 1.04 2.9 0.95 3.03 0.88 3.15 0.8c2.14,0.51 4.38,0.97 6.68,1.38l3.51 0.58 3.62 0.52 3.73 0.45 3.84 0.39c2.59,0.24 5.26,0.44 7.99,0.61l4.15 0.22c5.59,0.26 11.44,0.39 17.5,0.41l9.26 -0.05c9.41,-0.12 19.3,-0.45 29.54,-0.9l5.15 -0.23 5.2 -0.25c34.86,-1.71 73.3,-4.33 111.4,-4.33 58.67,0 138.36,0.23 227.87,0.95l15.89 0.13c26.65,0.23 54.11,0.5 82.06,0.82l50.8 0.63 51.53 0.75 51.88 0.87 17.31 0.32c17.3,0.33 34.59,0.67 51.78,1.05l17.17 0.38 17.5 0.41 33.1 0.83 0.86 0.02 33.05 0.9 16.54 0.49 16.39 0.5 32.27 1.06 15.85 0.56c31.5,1.14 61.75,2.39 90.28,3.77l27.93 1.43c18.21,0.98 35.57,2.01 51.95,3.11 20.47,1.37 39.39,2.84 56.48,4.42 5.14,-4.61 10.17,-9.27 15.1,-13.97 9.85,-9.41 19.3,-19 28.35,-28.76 4.53,-4.88 8.96,-9.8 13.29,-14.76l6.43 -7.48c10.6,-12.51 20.62,-25.27 30.11,-38.26 7.59,-10.39 14.83,-20.93 21.76,-31.6l5.13 -8.03 5.02 -8.08 4.9 -8.12 4.79 -8.18c3.15,-5.46 6.23,-10.96 9.24,-16.48l4.46 -8.31 4.36 -8.35 4.25 -8.39 4.16 -8.43 4.05 -8.47 3.96 -8.51 3.87 -8.54 3.77 -8.59c2.49,-5.73 4.91,-11.49 7.28,-17.26 3.55,-8.67 6.98,-17.38 10.29,-26.14 2.21,-5.84 4.37,-11.69 6.47,-17.57l3.12 -8.83 3.05 -8.85 2.98 -8.88 2.91 -8.9 2.84 -8.92 2.78 -8.94c1.83,-5.97 3.64,-11.95 5.39,-17.95l2.6 -9 2.55 -9.02 2.5 -9.03 2.45 -9.05 2.4 -9.06 2.36 -9.07 2.31 -9.09 2.27 -9.09 2.23 -9.1 2.19 -9.11 2.16 -9.12 2.13 -9.12 2.09 -9.13 2.07 -9.13 2.04 -9.13 2.02 -9.14 1.99 -9.13c2.28,-10.5 4.46,-20.98 6.55,-31.46 2.08,-10.48 4.05,-20.94 5.94,-31.39 1.88,-10.45 3.68,-20.9 5.36,-31.33 1.69,-10.43 3.26,-20.84 4.76,-31.25 1.49,-10.41 2.9,-20.8 4.19,-31.19 1.3,-10.38 2.5,-20.76 3.61,-31.12 1.11,-10.36 2.12,-20.71 3.04,-31.05 0.92,-10.34 1.75,-20.65 2.48,-30.97 0.73,-10.31 1.38,-20.63 1.93,-30.91 0.55,-10.29 1.01,-20.57 1.37,-30.83 0.37,-10.27 0.64,-20.52 0.83,-30.76 0.19,-10.24 0.29,-20.47 0.3,-30.69 0.01,-10.22 -0.07,-20.42 -0.24,-30.61 -0.17,-10.19 -0.42,-20.36 -0.76,-30.53 -0.34,-10.17 -0.78,-20.32 -1.29,-30.46 -0.51,-10.14 -1.1,-20.27 -1.79,-30.38 -0.68,-10.11 -1.45,-20.23 -2.3,-30.31 -1.7,-20.18 -3.74,-40.3 -6.1,-60.37 -1.18,-10.04 -2.44,-20.06 -3.79,-30.07 -1.34,-10.01 -2.76,-19.99 -4.26,-29.98 -1.5,-9.98 -3.09,-19.96 -4.75,-29.91 -1.66,-9.95 -3.4,-19.9 -5.21,-29.82 -3.63,-19.85 -7.57,-39.65 -11.81,-59.4 -2.12,-9.87 -4.31,-19.73 -6.58,-29.57 -2.27,-9.84 -4.61,-19.67 -7.03,-29.49 -2.42,-9.81 -4.91,-19.61 -7.47,-29.4 -2.56,-9.79 -5.2,-19.56 -7.9,-29.31 -2.71,-9.76 -5.48,-19.5 -8.33,-29.23 -2.85,-9.73 -5.76,-19.44 -8.75,-29.14 -2.99,-9.7 -6.04,-19.39 -9.16,-29.06 -3.12,-9.67 -6.31,-19.32 -9.57,-28.96 -9.77,-28.92 -20.15,-57.7 -31.1,-86.34 -3.65,-9.55 -7.36,-19.08 -11.14,-28.6 -3.78,-9.52 -7.62,-19.02 -11.52,-28.5 -3.9,-9.49 -7.86,-18.96 -11.89,-28.41 -12.07,-28.36 -24.7,-56.59 -37.83,-84.67 -13.14,-28.07 -26.8,-56 -40.95,-83.79 -9.43,-18.52 -19.09,-36.99 -28.95,-55.37 -4.93,-9.19 -9.91,-18.37 -14.95,-27.53 -5.03,-9.16 -10.12,-18.32 -15.26,-27.44 -10.27,-18.25 -20.77,-36.44 -31.43,-54.56 -5.33,-9.06 -10.72,-18.1 -16.15,-27.12 -10.86,-18.05 -21.92,-36.03 -33.15,-53.94 -5.62,-8.95 -11.29,-17.89 -16.99,-26.81 -5.71,-8.92 -11.46,-17.83 -17.25,-26.71 -5.79,-8.88 -11.63,-17.75 -17.51,-26.6 -5.88,-8.85 -11.8,-17.68 -17.77,-26.49 -11.92,-17.62 -24.02,-35.17 -36.27,-52.65 -6.12,-8.74 -12.29,-17.47 -18.49,-26.17 -12.41,-17.41 -24.97,-34.73 -37.67,-51.99 -6.35,-8.63 -12.73,-17.24 -19.16,-25.83l-5.67 -7.83 -5.77 -7.94 -5.85 -8.04 -5.94 -8.14 -6.02 -8.24 -6.11 -8.34 -6.18 -8.43 -6.26 -8.53 -6.34 -8.62 -6.4 -8.71 -6.47 -8.8 -6.54 -8.89 -6.6 -8.97 -6.66 -9.06 -6.72 -9.14 -6.77 -9.22 -6.82 -9.3 -6.87 -9.37 -6.92 -9.45 -6.96 -9.53 -7.01 -9.59 -7.04 -9.67 -7.07 -9.73 -7.11 -9.8 -14.31 -19.8 -7.2 -9.99 -7.21 -10.05 -7.24 -10.11 -7.25 -10.16 -7.26 -10.22 -7.28 -10.27 -7.29 -10.33 -7.29 -10.37 -14.59 -20.89c-7.29,-10.49 -14.6,-21.04 -21.87,-31.65l-7.27 -10.64 -7.26 -10.67 -7.24 -10.7 -7.23 -10.74 -14.39 -21.58 -7.15 -10.83 -7.13 -10.86c-7.11,-10.87 -14.18,-21.78 -21.18,-32.72 -4.67,-7.29 -9.32,-14.6 -13.93,-21.92 -27.68,-43.9 -54.26,-88.2 -79.04,-132.42 -4.05,-7.24 -8.06,-14.48 -12,-21.71 -5.27,-9.64 -10.44,-19.28 -15.51,-28.9 -3.8,-7.22 -7.55,-14.42 -11.23,-21.62 -8.2,-16.02 -16.09,-32 -23.65,-47.9l-4.46 -9.44 -3.31 -7.13 -3.26 -7.11 -4.2 -9.29 -5.3 -11.99 -3.97 -9.18 -5.08 -11.98 -2.91 -7.02c-1.92,-4.68 -3.81,-9.35 -5.66,-14.01l-2.75 -6.98 -2.69 -6.96 -2.63 -6.95 -2.58 -6.93 -2.52 -6.91c-1.66,-4.6 -3.28,-9.19 -4.87,-13.77l-2.34 -6.86zm237.41 -213.56c-7.62,-2.27 -14.99,-4.38 -22.08,-6.31l-1.06 -0.28 -3.86 -1.04 -4.25 -1.11 -4.17 -1.06 -2.05 -0.51 -2.52 -0.62 -3.04 -0.73 -2.81 -0.65 -3.15 -0.72 -0.7 -0.15 -3.1 -0.68 -2.19 -0.46 -1.83 -0.38 -1.81 -0.36 -1.78 -0.35 -1.76 -0.33 -1.73 -0.32 -1.71 -0.3 -1.68 -0.29 -6.46 -0.99 -4.56 -0.58 -1.46 -0.16 -2.84 -0.27 -2.72 -0.2c-2.21,-0.14 -4.31,-0.2 -6.27,-0.2 -2.31,0.01 -4.44,0.13 -6.37,0.35l-0.21 0.02c-1.2,0.15 -2.33,0.34 -3.37,0.58l-0.32 0.07c-1.06,0.25 -2.03,0.55 -2.92,0.9 -2.44,0.96 -4.58,2.34 -6.42,4.1 -1.42,1.36 -2.66,2.96 -3.74,4.76 -0.58,0.97 -1.11,2 -1.59,3.09 -0.58,1.3 -1.09,2.68 -1.54,4.15l-0.19 0.67 -0.6 2.28 -0.34 1.62c-0.73,3.68 -1.16,7.77 -1.29,12.21l-0.03 1.72 -0.01 1.75 0.07 3.61 0.08 1.86 0.1 1.88 0.13 1.92c0.24,3.22 0.58,6.58 1.03,10.06l0.28 2.1 0.31 2.13 0.68 4.34c0.49,2.93 1.03,5.93 1.64,9l0.95 4.65 0.51 2.36 0.53 2.38 0.55 2.41 0.57 2.43 0.59 2.45 0.61 2.47 0.63 2.49 1.31 5.04 0.69 2.55 0.7 2.57 0.72 2.59 1.19 4.2 1.23 4.22 1.27 4.24 1.3 4.27 1.33 4.29 1.37 4.31 1.4 4.33 1.44 4.36 1.46 4.37 1.5 4.39 1.54 4.42 1.56 4.43 1.6 4.46 1.62 4.47 1.66 4.49 1.68 4.51 1.72 4.53 1.75 4.54 1.77 4.56 1.8 4.58 1.83 4.6 1.86 4.61 1.89 4.63 1.91 4.64 1.94 4.66 1.96 4.67 2 4.69 2.01 4.7 2.04 4.72 4.16 9.47 2.11 4.75 2.14 4.77 6.54 14.37 2.23 4.81 2.25 4.82 4.56 9.68 2.3 4.85 2.33 4.86 2.35 4.87 2.37 4.88 2.39 4.89 2.4 4.89 7.32 14.73 2.47 4.92 2.49 4.93 2.5 4.93 2.52 4.94c5.91,11.54 11.92,23.11 18.04,34.69l10.59 19.88c20.83,38.81 43.6,76.59 68.02,114.04l8.21 12.47 8.32 12.45c8.38,12.44 16.95,24.87 25.68,37.29l8.78 12.43 8.9 12.44c5.97,8.3 12.01,16.6 18.11,24.93l9.21 12.5 9.32 12.53 9.41 12.57c6.31,8.39 12.68,16.83 19.11,25.28l9.69 12.71 9.79 12.78 9.87 12.84 30.13 38.98 10.2 13.16 10.28 13.26 10.35 13.35 10.43 13.46 21.06 27.26 10.62 13.82 10.7 13.94 10.75 14.07 10.81 14.21 10.88 14.36 10.92 14.51 10.98 14.67 11.02 14.82 11.08 15 11.12 15.17 11.17 15.35 11.2 15.53 11.25 15.72 11.28 15.92 11.32 16.13 11.35 16.33 11.38 16.54 11.41 16.76 11.43 16.99 11.46 17.21 11.48 17.46 11.5 17.69 11.52 17.94 11.53 18.2 11.54 18.45 11.56 18.72 11.56 18.98c3.86,6.37 7.71,12.8 11.57,19.27 3.86,6.47 7.72,12.97 11.57,19.54 5.69,9.68 11.32,19.35 16.89,29.01 5.57,9.66 11.07,19.3 16.52,28.93 5.44,9.63 10.83,19.24 16.14,28.85 5.32,9.61 10.58,19.2 15.77,28.79 5.19,9.59 10.34,19.16 15.4,28.73 5.07,9.56 10.06,19.11 15.01,28.66 4.94,9.55 9.83,19.08 14.65,28.61 4.82,9.53 9.57,19.05 14.26,28.56 4.69,9.51 9.32,19.03 13.88,28.52 4.56,9.5 9.08,18.99 13.51,28.47 4.44,9.48 8.81,18.96 13.12,28.43 4.31,9.47 8.56,18.95 12.74,28.41 4.18,9.46 8.3,18.92 12.36,28.37 4.06,9.45 8.05,18.89 11.98,28.34 3.93,9.45 7.8,18.89 11.6,28.33 3.8,9.44 7.53,18.88 11.2,28.31 3.67,9.43 7.29,18.87 10.83,28.3 3.54,9.43 7.01,18.86 10.43,28.29 3.41,9.43 6.76,18.85 10.05,28.28 3.28,9.43 6.5,18.86 9.66,28.29 3.16,9.43 6.25,18.86 9.27,28.29 3.03,9.43 5.99,18.88 8.88,28.31 2.9,9.44 5.72,18.87 8.49,28.31 2.76,9.44 5.46,18.89 8.1,28.34 2.63,9.45 5.2,18.89 7.7,28.35 2.5,9.46 4.94,18.93 7.31,28.39 2.37,9.47 4.68,18.93 6.92,28.41 2.24,9.48 4.41,18.96 6.52,28.45 2.11,9.49 4.16,18.99 6.13,28.49 1.98,9.5 3.87,19.03 5.72,28.54 1.84,9.52 3.62,19.05 5.33,28.58 1.71,9.54 3.36,19.07 4.94,28.63 3.15,19.11 6.04,38.26 8.66,57.45 1.31,9.59 2.55,19.2 3.73,28.82 2.35,19.24 4.44,38.52 6.25,57.85 0.91,9.67 1.75,19.35 2.52,29.04 0.77,9.69 1.48,19.4 2.11,29.12 0.64,9.72 1.21,19.46 1.71,29.21 0.5,9.75 0.94,19.52 1.3,29.3 0.37,9.78 0.67,19.58 0.9,29.4 0.23,9.82 0.38,19.65 0.48,29.5 0.09,9.85 0.12,19.72 0.08,29.6 -0.04,9.89 -0.15,19.79 -0.33,29.71 -0.9,49.61 -3.51,99.69 -7.85,150.33 -2.61,30.39 -5.83,60.97 -9.69,91.78 -1.29,10.27 -2.64,20.56 -4.07,30.88 -14.24,103.2 -35.47,208.91 -63.82,317.86 54.54,-56.7 105.84,-115.78 153.81,-176.99 23.98,-30.61 47.13,-61.74 69.43,-93.38 11.15,-15.82 22.09,-31.76 32.82,-47.83 5.36,-8.03 10.67,-16.1 15.93,-24.19 10.52,-16.19 20.82,-32.49 30.9,-48.91 5.04,-8.21 10.03,-16.44 14.97,-24.71 4.94,-8.27 9.82,-16.57 14.64,-24.89 4.83,-8.32 9.6,-16.67 14.32,-25.05 9.44,-16.76 18.66,-33.62 27.66,-50.59 13.5,-25.46 26.52,-51.16 39.03,-77.07 4.17,-8.64 8.29,-17.3 12.35,-25.99 4.06,-8.69 8.07,-17.39 12.02,-26.13 3.95,-8.74 7.84,-17.5 11.68,-26.28 3.84,-8.78 7.62,-17.59 11.35,-26.42 3.73,-8.83 7.41,-17.68 11.02,-26.56 3.62,-8.87 7.17,-17.77 10.67,-26.69 3.5,-8.92 6.95,-17.86 10.34,-26.82 3.39,-8.96 6.72,-17.94 10,-26.95 3.28,-9 6.51,-18.03 9.67,-27.07 3.16,-9.05 6.27,-18.11 9.32,-27.2 3.05,-9.09 6.03,-18.19 8.97,-27.32 2.94,-9.12 5.82,-18.27 8.64,-27.43 2.82,-9.16 5.58,-18.34 8.29,-27.54 2.71,-9.2 5.34,-18.42 7.94,-27.66 2.59,-9.24 5.12,-18.49 7.6,-27.76 2.48,-9.27 4.9,-18.56 7.26,-27.87 2.36,-9.31 4.66,-18.63 6.9,-27.97 4.49,-18.68 8.74,-37.43 12.76,-56.23 2.01,-9.4 3.96,-18.82 5.85,-28.25 1.89,-9.43 3.71,-18.89 5.49,-28.35 1.77,-9.46 3.5,-18.94 5.15,-28.43 1.65,-9.49 3.25,-19 4.79,-28.51 1.54,-9.52 3.01,-19.05 4.43,-28.6 1.42,-9.54 2.79,-19.1 4.08,-28.67 1.3,-9.57 2.53,-19.14 3.71,-28.74 1.18,-9.59 2.3,-19.2 3.36,-28.82 1.06,-9.62 2.07,-19.25 3,-28.89 0.94,-9.64 1.83,-19.29 2.64,-28.95 0.82,-9.66 1.58,-19.34 2.27,-29.02 0.7,-9.68 1.33,-19.37 1.91,-29.07 0.58,-9.7 1.09,-19.41 1.54,-29.13 0.45,-9.72 0.84,-19.46 1.18,-29.19 0.33,-9.74 0.6,-19.48 0.81,-29.23 0.21,-9.75 0.36,-19.52 0.45,-29.29 0.09,-9.77 0.11,-19.55 0.07,-29.33 -0.04,-9.78 -0.13,-19.57 -0.29,-29.37 -0.16,-9.8 -0.38,-19.61 -0.67,-29.41 -0.29,-9.81 -0.63,-19.62 -1.04,-29.44 -3.8,-11.3 -7.7,-22.55 -11.68,-33.77 -3.99,-11.22 -8.07,-22.4 -12.24,-33.54 -8.34,-22.28 -17.05,-44.4 -26.12,-66.35 -4.53,-10.98 -9.16,-21.9 -13.87,-32.8 -9.42,-21.79 -19.2,-43.4 -29.32,-64.85 -20.24,-42.89 -41.87,-85.08 -64.8,-126.53 -17.2,-31.09 -35.13,-61.75 -53.78,-91.98 -12.43,-20.15 -25.17,-40.11 -38.22,-59.87 -26.1,-39.52 -53.41,-78.23 -81.88,-116.09 -7.12,-9.47 -14.31,-18.88 -21.57,-28.24 -50.82,-65.51 -105.13,-128.39 -162.53,-188.38 -8.2,-8.57 -16.46,-17.08 -24.79,-25.53 -24.98,-25.35 -50.52,-50.17 -76.58,-74.43 -26.07,-24.26 -52.67,-47.96 -79.77,-71.09 -18.07,-15.42 -36.36,-30.58 -54.86,-45.48 -9.25,-7.45 -18.56,-14.83 -27.92,-22.15 -28.07,-21.95 -56.61,-43.31 -85.6,-64.05 -38.65,-27.66 -78.08,-54.22 -118.24,-79.63 -10.04,-6.35 -20.12,-12.64 -30.25,-18.85 -10.13,-6.21 -20.3,-12.34 -30.51,-18.41 -20.42,-12.13 -41.02,-23.97 -61.78,-35.52 -10.38,-5.77 -20.8,-11.47 -31.26,-17.09 -10.46,-5.62 -20.96,-11.17 -31.49,-16.64 -21.07,-10.94 -42.3,-21.58 -63.67,-31.91 -24.63,-11.91 -49.48,-23.36 -74.48,-34.43 -15.16,-6.71 -30.38,-13.28 -45.67,-19.68 -7.68,-3.22 -15.39,-6.39 -23.1,-9.53 -13.25,-5.4 -26.54,-10.65 -39.87,-15.82 -19.27,-7.46 -38.64,-14.65 -58.09,-21.61 -40.66,-14.55 -81.69,-28.04 -123.04,-40.34z"/>
     </clipPath>
     <clipPath id="id2">
      <path d="M13917.95 7725.28c120,-165.96 304.7,-404.47 436.7,-640.26 86.46,-154.44 150.33,-307.75 158.62,-438.77 8.52,-134.48 2.64,-125.9 258.23,-132.25 42.82,-1.06 82.87,0.21 82.87,52.82l0 3486.23c0,62.21 -125.83,35.37 -247.62,35.37 -220.86,0 -739.72,3.26 -958.49,23.4 -164.38,-147.55 -220.13,-343.24 -262.47,-538.07 -146.08,-671.83 121.12,-1298.64 532.16,-1848.47zm606.26 -1339.28c-98.47,-165.08 -141.47,-265.17 -332.45,-348.41 208.95,-71.45 431.5,-113.6 662.7,-121.55 -1.32,405.81 30.57,443.16 -83.79,449.57 -87.7,4.92 -165.62,12.76 -246.46,20.39zm-209.16 -49.81c53.94,86.44 53.84,70.97 -160.53,128.19 -509.7,136.05 -1120.45,576.2 -1399.8,1024.86 196.78,-595.31 630.59,-1082.74 1189.67,-1350.52 127.78,7.58 300.47,84.93 370.66,197.47zm-76.88 272.63c50.1,-14.93 89.9,-22.98 104.77,-17.14 22.36,8.8 18.63,52.28 3.08,107.65 -25.09,89.31 -74.75,194.71 -131.69,300.82 -148.15,275.97 -393.92,500.05 -640.83,920.03 -364.3,619.64 -474.75,1184.08 -293.29,1881.42 -436.33,-453.6 -665.18,-1059.67 -639.02,-1688.19 243.25,-722.93 870.78,-1288.51 1596.98,-1504.59zm1713.51 1116.46c-120,-165.96 -304.7,-404.47 -436.7,-640.26 -86.46,-154.44 -150.33,-307.75 -158.62,-438.77 -8.52,-134.48 -2.64,-125.9 -258.23,-132.25 -42.82,-1.06 -82.87,0.21 -82.87,52.82l0 3486.23c0,62.21 125.83,35.37 247.62,35.37 220.86,0 739.72,3.26 958.49,23.4 164.38,-147.55 220.13,-343.24 262.47,-538.07 146.08,-671.83 -121.12,-1298.64 -532.16,-1848.47zm-606.26 -1339.28c98.47,-165.08 141.47,-265.17 332.45,-348.41 -208.95,-71.45 -431.5,-113.6 -662.7,-121.55 1.32,405.81 -30.57,443.16 83.79,449.57 87.7,4.92 165.62,12.76 246.46,20.39zm209.16 -49.81c-53.94,86.44 -53.84,70.97 160.53,128.19 509.7,136.05 1120.45,576.2 1399.8,1024.86 -196.78,-595.31 -630.59,-1082.74 -1189.67,-1350.52 -127.78,7.58 -300.47,84.93 -370.66,197.47zm76.88 272.63c-50.1,-14.93 -89.9,-22.98 -104.77,-17.14 -22.36,8.8 -18.63,52.28 -3.08,107.65 25.09,89.31 74.75,194.71 131.69,300.82 148.15,275.97 393.92,500.05 640.83,920.03 364.3,619.64 474.75,1184.08 293.29,1881.42 436.33,-453.6 665.18,-1059.67 639.02,-1688.19 -243.25,-722.93 -870.78,-1288.51 -1596.98,-1504.59z"/>
     </clipPath>
      <mask id="id3">
  <radialGradient id="id4" gradientUnits="userSpaceOnUse" cx="13592.27" cy="4758.24" r="1243.53" fx="13592.27" fy="4758.24">
   <stop offset="0" style="stop-opacity:0.996078; stop-color:white"/>
   <stop offset="1" style="stop-opacity:0; stop-color:white"/>
  </radialGradient>
       <rect style="fill:url(#id4)" x="12533.79" y="5809.79" width="4802.05" height="4408.27"/>
      </mask>
 </defs>
 <g id="Layer_x0020_1">
  <metadata id="CorelCorpID_0Corel-Layer"/>
  <g id="_1932345175888">
   <path class="fil0" d="M18858.25 14399.63c-126.96,0 -253.92,0 -380.88,0 -690.24,1051.23 -2197.34,2196.33 -3634.05,2752.12 -1436.71,-555.79 -2943.81,-1700.89 -3634.05,-2752.12 -126.96,0 -253.93,0 -380.89,0 0,-403.52 -184.53,-347.5 -345.34,-380.73l-1.91 -411.44 -1.84 -396.35 -1376.81 -227.9 0 -2832.84 1396.97 -2.28 -254.31 -2330.67c486.08,-218.2 1571.61,-540.46 2204.42,-587.22 266.59,-729.49 1211.45,-1668.74 2458.6,-1677.49 1247.16,8.75 2192.02,948 2458.61,1677.49 632.8,46.76 1588.64,369.02 2074.73,587.22l-254.32 2309.13c313.77,0 627.68,0.98 941.73,0l467.54 2853.43c-134.34,70.98 -856.18,304.73 -1068.25,371.13 -39.44,10.38 -153.66,21.27 -153.66,72.5l0 183.85 0 446.99c-86.32,0 -79.99,-0.47 -166.31,-0.66 -53.85,-0.07 -86.97,6.79 -123.73,42.92 -88.98,87.41 -66.08,181.27 -66.08,302.92l-160.17 0z"/>
   <path class="fil1" d="M11089.32 10270.18l-227.76 -2067.98c256.86,-91.15 521.76,-169.08 784.91,-235.21 215.16,-54.07 532.42,-136.26 758.52,-165.83 7.46,-56.88 16.76,-113.2 27.83,-168.87 -201.9,24.49 -524.97,101.3 -769.41,160.96 -339.61,82.89 -692.25,190.84 -979.56,298.61l239.91 2178.32 165.56 0zm7029.21 -2305.12c240.56,65.78 480.39,143.71 714.48,231.78l-228.35 2073.34 165.57 0 240.24 -2181.34c-284.54,-112.11 -621.15,-224.61 -945.64,-308.34 -210.67,-54.37 -486.39,-116.81 -669.57,-139.26 11.11,55.78 20.45,112.21 27.94,169.21 210.6,28.58 495.3,99.91 695.33,154.61zm-304.16 6403.87c-713.36,911.78 -1945.58,1746.5 -2967.37,2184.43 -1021.8,-437.93 -2254.02,-1272.65 -2967.38,-2184.43l-206.55 0c722.29,978.99 2055.65,1897.82 3173.93,2363.07 1118.27,-465.25 2451.63,-1384.08 3173.92,-2363.07l-206.55 0z"/>
   <path class="fil2" d="M12332.76 6712.11c0,-186.89 -0.52,-369.2 -0.52,-547.22 0,-178.59 -1.1,-352.04 -1.54,-522.32 -0.57,-214.64 -1.29,-410.71 -2.57,-588.42 -1.28,-176.88 -3.08,-336.58 -3.6,-477.66 131.66,-86.73 263.74,-171.83 397.56,-241.85 90.95,-47.59 165.42,-42.1 220.64,10.3 54.83,52.04 89.96,160.82 104.4,324.85 5.08,57.76 8.1,116.48 8.23,176.58 0.37,165.4 -7.07,303.69 -23.66,415.56 -16.82,113.36 -44.51,206.51 -81.77,282.77 -37.82,77.41 -88.03,143.31 -150.69,198.05 -32.98,28.81 -57.03,47.64 -72.52,56.39 -16.9,9.55 -30.35,11.14 -44.24,11.14 -23.14,0 -42.3,-13.74 -55.54,-47.49 -13.48,-34.37 -24.18,-85.29 -32.41,-151.42 -5.65,7.74 -10.28,15.17 -14.91,21.77 8.74,85.85 14.47,164.56 14.91,238.41 0.58,97.56 0.52,190.02 1.03,275.6 0.5,85.56 1.54,164.56 3.09,237.55 -88.47,107.03 -177.43,216.36 -265.89,327.41zm342.52 -1244.97c35.44,-28.39 63.68,-76.47 83.84,-144.53 19.93,-67.29 29.57,-161.71 28.79,-283.34 -0.23,-37.48 -1.63,-74.75 -4.62,-110.77 -6.25,-75.01 -19.43,-122.34 -38.57,-141.94 -19.41,-19.88 -44.78,-20.68 -75.09,-1.73 -27.8,17.39 -54.51,36.35 -81.27,55.53 0,117.05 0.52,233.25 0.52,350.03 0,117.05 1.02,232.67 2.05,348.87 27.27,-24.61 55.53,-49.02 84.35,-72.12zm1197.33 -1514.01c-0.52,80.14 -0.52,184.32 -0.52,311.68 0,127.36 1.22,278.49 2.06,453.06 0.17,39.5 1.33,78.71 1.54,117.92 0.81,151.67 1.29,281.06 2.06,388.07 0.76,106.76 2.57,191.76 4.11,254.73 -88.46,34.06 -176.92,74.12 -265.39,115.63 1.55,-99.89 1.55,-202.64 1.55,-308.53 0,-106.19 0.51,-216.08 0.51,-329.14 -66.85,26.62 -133.2,55.24 -199.55,86.43 0,120.49 0.78,235.28 1.03,344.88 0.25,109.33 2.05,212.93 3.08,311.39 -88.46,53.79 -176.41,111.32 -263.84,173.43 0.51,-202.34 1.54,-375.49 1.54,-519.46 0,-143.67 -0.78,-259.01 -1.03,-344.86 -0.25,-84.41 -1.04,-187.47 -2.06,-308.23 -1.02,-121.62 -1.7,-262.18 -4.11,-420.73 -0.66,-44.35 -2.57,-88.44 -2.57,-133.08 87.95,-31.76 175.38,-60.39 263.85,-85.86 0,107.61 0,215.22 0,321.98 0,106.76 1.02,213.22 2.57,319.11 65.83,-27.19 132.7,-51.8 199.55,-75.56 -0.52,-37.21 -1.27,-74.69 -1.55,-111.9 -0.73,-96.14 -1.8,-186.6 -2.57,-270.75 -0.76,-84.41 -2.05,-163.13 -3.6,-235.26 87.44,-19.16 175.39,-37.48 263.34,-54.95zm131.14 1483.39c1.54,-79.29 3.08,-182.03 3.08,-307.1 0,-125.36 -0.42,-273.89 -1.02,-445.32 -0.42,-117.61 -0.78,-239.27 -2.58,-364.05 -1.79,-125.34 -3.59,-254.44 -7.19,-387.81 207.79,-28.9 416.08,-49.22 624.89,-64.1 0,113.04 0.51,225.52 1.03,337.99 -120.86,8.89 -240.71,20.91 -361.57,34.93 1.03,94.16 3.09,188.31 4.12,282.19 111.09,-18.9 222.19,-37.2 333.28,-51.81 0,78.42 0.51,156.55 1.03,234.7 -111.6,5.13 -223.22,15.44 -334.31,26.9 0,95.59 0.51,191.18 1.54,286.48 120.88,-20.61 241.73,-38.06 363.11,-49.22 0.51,112.47 1.54,225.23 2.57,337.43 -209.32,25.75 -418.64,68.68 -627.98,128.79zm727.76 -135.66c0,-123.07 -0.52,-249.86 -0.52,-380.93 0,-131.09 0.06,-266.46 -0.51,-405.55 -0.44,-110.47 -1.56,-220.09 -3.09,-327.7 -1.54,-108.18 -3.6,-215.52 -6.17,-321.69 124.97,-3.15 249.96,-3.44 375.45,0 22.62,128.21 45.84,256.71 68.41,385.51 22.67,129.34 47.26,259.6 69.43,389.8 7.66,44.93 17.57,120.28 31.88,226.39 2.14,15.8 4.63,30.91 7.2,46.64 6.69,0.86 13.89,1.73 21.09,3.15 -4.63,-78.42 -8.05,-153.39 -9.26,-224.66 -1.35,-80.7 -2.57,-189.49 -4.63,-326.26 -1.01,-68.13 -2.57,-143.69 -3.6,-226.1 -1.01,-82.15 -2.57,-171.72 -4.11,-267.9 81.26,6.3 161.5,12.61 242.76,18.91 -0.51,98.16 -1.03,208.05 -1.03,329.98 0,121.34 0.74,255.01 1.55,400.4 0.72,131.93 1.8,260.17 3.08,384.93 1.28,124.78 4.11,246.71 5.66,364.91 -124.99,-24.9 -250.48,-46.37 -375.97,-62.96 -20.06,-110.2 -40.69,-220.09 -60.69,-329.42 -20.1,-109.89 -40.62,-219.23 -60.18,-329.14 -12.85,-74.41 -21.33,-138.56 -28.8,-192.32 -7.43,-53.55 -15.94,-118.21 -23.65,-193.48 -7.2,-0.56 -13.37,-0.85 -20.06,-0.85 1.03,36.35 2.84,84.44 4.63,143.1 1.79,58.96 2.79,105.05 3.09,137.67 0.72,81.57 1.69,163.43 2.57,244.69 1.16,106.76 2.06,202.93 3.08,287.93 1.02,84.99 2.06,159.12 3.6,222.66 -80.75,-2.01 -160.98,-2.59 -241.21,2.29zm1265.21 255c-108.49,-46.98 -192.17,-118.9 -250.47,-216.94 -57.94,-97.41 -96.72,-235.55 -114.69,-415.84 -7.73,-77.55 -12.18,-169.15 -12.86,-274.76 -0.85,-134.5 6.2,-249.56 20.06,-344.88 13.9,-95.56 36.07,-172.26 64.29,-229.53 57.14,-115.87 149.23,-166.41 275.67,-141.37 109.11,21.6 193.05,84.61 251.49,189.74 30,53.99 54.06,120.2 73.04,198.06 19.05,78.11 33.63,168.61 42.69,270.17 8.42,94.19 12.65,194.06 12.86,298.22 0.29,147.39 -6.64,271.33 -20.58,372.05 -13.83,99.89 -35.72,175.92 -65.31,227.54 -58.34,101.77 -150.7,121.86 -276.19,67.54zm4.12 -355.18c30.34,11.68 53.48,13.75 68.92,5.73 9.25,-76.41 15.42,-149.13 19.02,-217.81 3.59,-68.67 5.57,-133.07 5.15,-192.9 -0.59,-80.11 -3.63,-149.95 -9.26,-208.34 -8.24,-85.56 -21.1,-154 -39.1,-205.5 -17.98,-51.51 -41.19,-80.47 -69.93,-87.86 -25.77,-6.62 -51.44,-4.86 -75.61,5.43 -7.2,65.55 -12.08,127.07 -15.43,185.76 -3.32,58.08 -4.65,127.08 -4.11,206.34 0.47,68.7 3.59,134.82 9.77,198.91 8.2,85.01 21.13,154.84 39.08,210.07 18.03,55.52 41.68,88.7 71.5,100.17zm460.31 569.54c1.03,-115.9 2.57,-252.42 2.57,-409.26 0,-157.42 -0.35,-335.72 -1.03,-534.62 -0.34,-103.31 -0.76,-206.65 -0.51,-309.95 0.25,-107.34 -1.03,-253.02 -4.63,-435.03 126.51,44.07 253.54,93.3 380.59,145.68 9.25,112.18 18.54,224.37 27.77,336.85 9.27,113.04 18.51,226.97 27.76,341.16 9.25,114.18 18.56,229.81 27.79,345.15 9.27,115.9 18.51,232.4 28.28,349.74 6.69,5.42 13.37,10.87 20.57,16.88 7.2,-104.46 15.46,-208.93 22.63,-313.68 7.23,-105.6 15.2,-211.24 22.64,-317.4 7.46,-106.48 15.47,-213.78 23.14,-320.54 7.74,-107.6 15.42,-216.08 23.14,-324.26 127.04,72.12 254.59,155.98 382.13,243.56 -0.51,235.53 1.03,417.27 1.54,542.91 1.03,136.24 2.59,272.18 3.6,405.84 1.03,133.93 2.84,267.31 4.63,400.4 1.79,132.49 4.13,265.58 6.17,396.38 2.06,131.35 4.63,261.87 7.73,392.37 -80.75,-97.01 -160.47,-192.02 -240.19,-285.61 -0.51,-44.08 -1.12,-189.75 -3.6,-438.47 -2.13,-213.19 -2.91,-347.74 -3.6,-404.1 -1.35,-109.6 -3.08,-219.54 -4.11,-328.85 -1.02,-108.76 -2.06,-218.38 -3.09,-327.42 -5.65,-4.58 -10.8,-8.59 -15.94,-12.87 -9.77,115.33 -19.55,230.4 -28.81,344.58 -9.24,113.9 -18.53,227.53 -27.77,340.86 -9.26,113.61 -18.47,226.4 -27.77,339.15 -9.2,111.62 -18.51,222.95 -27.78,334.28 -81.25,-78.13 -162,-154.83 -242.75,-229.81 -11.31,-122.79 -22.6,-245.29 -33.44,-365.77 -10.75,-119.63 -22.11,-239.28 -32.91,-357.75 -10.78,-118.2 -22.1,-236.13 -32.91,-353.46 -10.77,-116.77 -21.6,-232.69 -32.41,-348.59 -5.14,-2.58 -10.29,-5.15 -15.43,-7.72 0.52,208.93 0.52,338.85 0.52,390.08 0,63.54 0.51,126.79 0.51,190.61 0,113.62 0,232.41 0.51,355.47 0.5,122.77 1.55,251.85 3.09,385.22 -79.72,-60.1 -159.43,-119.05 -238.63,-172.01z"/>
   <path class="fil3" d="M10983.23 14194.2l7896.07 0c0,-189.57 155.09,-344.66 344.66,-344.66l0 -653.05c-189.57,0 -344.66,-155.09 -344.66,-344.65l-7896.07 0c0,189.56 -155.09,344.65 -344.65,344.65l0 653.05c189.56,0 344.65,155.09 344.65,344.66z"/>
   <path class="fil4" d="M20052.47 12830.07c-3413.58,-533.22 -6878.82,-546.52 -10398.18,-15.32l1280.93 212.03c30.48,-51.36 48.02,-111.2 48.02,-174.95l7896.06 0c0,89.52 34.6,171.36 91.06,232.79 129.52,140.97 885.71,-191.34 1082.11,-254.55z"/>
   <path class="fil5" d="M9340.97 10458.96c236.95,-0.48 473.92,-0.95 711.98,-1.67 0,156.7 0,313.14 0,469.84 -148.51,5 -297.02,10 -445.53,15 0,120.5 0,240.75 0,360.77 137.59,-7.86 275.19,-15.96 412.78,-23.8 0,149.77 0,299.79 0,449.35 -137.59,12.14 -275.19,24.28 -412.78,36.19 0,148.6 0,297.43 0,446.02 152.88,-17.85 305.76,-35.96 458.65,-53.34 0,165.98 0,331.72 0,497.23 -242.43,35.96 -483.76,72.15 -725.1,108.34 0,-383.87 0,-767.97 0,-1151.85 0,-383.87 0,-767.97 0,-1152.08zm809.18 -1.9c97.19,-0.24 195.47,-0.49 293.76,-0.72 25.11,110.25 50.23,219.82 75.34,328.86 25.11,109.06 51.33,217.42 77.54,325.53 24.02,-109.78 49.1,-219.57 73.17,-328.86 23.98,-108.83 49.13,-217.66 74.25,-326 96.1,-0.25 193.29,-0.48 290.48,-0.72 -44.78,168.37 -90.74,337.18 -134.33,506.98 -43.76,170.48 -89.53,341.72 -133.22,513.89 48.05,177.9 97.12,354.85 145.25,530.56 47.95,175.05 98.27,348.63 147.42,521.51 -100.47,11.68 -199.85,22.87 -299.22,34.29 -28.39,-109.53 -57.88,-219.09 -85.17,-329.33 -27.3,-110.25 -56.79,-220.99 -84.09,-332.2 -28.39,116.69 -56.85,233.84 -85.18,351.25 -28.44,117.87 -56.78,236.22 -85.19,355.05 -99.36,13.1 -198.73,26.2 -297.02,39.54 49.14,-196.23 98.11,-391.56 147.42,-585.34 48.96,-192.45 99.38,-384.58 149.6,-575.08 -45.86,-169.32 -91.87,-339.32 -136.5,-510.32 -44.91,-172.13 -89.53,-345.06 -134.31,-518.89zm934.77 -1.91c269.72,-0.47 539.46,-0.95 809.19,-1.42 0,164.07 0,327.66 0,491.49 -90.64,2.16 -181.28,4.53 -271.91,6.67 0,252.67 0,505.56 0,757.98 0,252.42 0,505.32 0,757.73 -88.46,8.34 -176.91,16.91 -265.37,26.44 0,-255.75 0,-511.75 0,-767.5 0,-255.76 0,-511.75 0,-767.74 -90.63,2.61 -181.27,5.47 -271.91,8.1 0,-170.51 0,-341.01 0,-511.75zm932.59 1974.83c0,-329.34 0,-658.92 0,-988.25 0,-329.09 0,-658.67 0,-988.25 147.42,-0.24 294.85,-0.17 443.35,-0.47 81.9,-0.16 145.28,15.23 188.92,47.15 42.6,31.16 78.68,89.77 104.84,174.55 26.23,84.99 40.4,188.84 40.4,311 0,106.21 -11.49,198.46 -31.66,276.48 -20.22,78.18 -48.42,141.65 -84.09,191.69 -22.2,31.15 -53.51,58.33 -92.82,80.24 31.67,22.39 54.41,44.9 68.79,67.87 9.63,15.36 24.03,48.84 42.59,99.31 18.56,50.48 30.74,89.75 37.14,117.63 20.89,91.16 42.61,182.65 63.33,273.62 20.76,91.19 43.69,182.41 65.52,273.38 -100.46,5.95 -200.93,13.33 -300.31,20.94 -24.02,-96.43 -49.09,-193.13 -72.06,-290.28 -22.88,-96.67 -46.6,-194.41 -69.9,-291.94 -18.17,-76.06 -33.43,-125.55 -48.04,-147.65 -19.23,-29.09 -41.51,-42.94 -65.53,-41.9 -8.72,0.37 -16.38,0.71 -24.02,0.94 0,132.17 0,264.1 0,396.02 0,131.93 0,263.84 0,395.78 -89.55,6.91 -177.99,13.57 -266.45,22.14zm266.45 -1182.32c37.12,-1.19 74.26,-2.49 112.48,-3.58 11.99,-0.33 35.61,-11.06 70.98,-29.05 17.07,-8.67 32.09,-28.43 43.68,-62.15 11.32,-32.96 16.38,-70.48 16.38,-113.11 0,-62.64 -8.84,-110.7 -26.21,-143.84 -17.55,-33.52 -51.34,-49.6 -99.37,-48.82 -39.31,0.63 -78.63,1.19 -117.94,1.91 0,132.88 0,265.76 0,398.64zm1195.76 775.11c-100.47,4.05 -200.94,8.82 -301.4,13.34 -15.29,105.02 -29.48,210.04 -43.68,314.82 -90.64,5 -181.27,10 -271.91,15 53.5,-321.48 108.01,-641.56 161.62,-961.11 53.4,-318.4 108.11,-636.05 162.72,-952.53 97.17,-0.23 194.37,-0.23 291.56,-0.23 53.5,313.14 106.98,625.83 160.52,937.52 53.46,311.24 107.02,622 161.63,932.05 -92.83,3.34 -185.65,6.43 -278.48,9.29 -14.19,-102.64 -28.38,-205.27 -42.58,-308.15zm-56.78 -405.78c-16.39,-112.15 -32.8,-224.55 -48.05,-336.95 -15.31,-112.62 -30.58,-225.27 -45.86,-338.38 -16.38,113.58 -32.76,227.18 -48.06,340.77 -15.26,113.34 -30.57,227.41 -45.86,341.24 62.24,-2.15 124.49,-4.52 187.83,-6.68zm312.31 -1165.17c91.74,0 184.56,0 277.37,-0.25 31.68,223.61 64.41,446.76 96.1,669.63 31.62,222.42 65.53,445.32 98.29,667.74 31.66,-222.91 63.33,-446.04 95,-668.93 31.64,-222.65 63.33,-445.78 96.11,-668.44 89.53,0 179.08,0 269.72,0 -53.52,308.86 -108.15,617.97 -160.52,927.06 -52.46,309.55 -105.93,619.37 -158.35,929.2 -96.1,1.18 -192.19,2.61 -288.29,5.23 -54.61,-308.62 -110.35,-618.2 -163.81,-928.01 -53.55,-310.27 -108.1,-621.51 -161.62,-933.23zm1480.78 1548.1c-100.46,-0.48 -200.93,-1.2 -301.39,-2.15 -15.29,101.68 -29.48,203.37 -43.68,304.57 -90.64,-0.23 -181.28,0.96 -271.92,2.14 53.51,-309.32 108.08,-618.67 161.63,-927.52 53.46,-308.38 108.11,-617 162.7,-925.62 97.19,0.23 194.39,0.23 291.56,0.23 53.52,309.11 107.04,618.44 160.54,927.78 53.5,309.32 108.11,619.62 162.71,930.85 -93.92,-2.62 -186.73,-3.56 -279.56,-4.28 -14.19,-101.92 -28.38,-203.84 -42.59,-306zm-56.78 -401.73c-16.38,-110.73 -32.74,-222.19 -48.04,-333.15 -15.28,-110.74 -30.59,-221.94 -45.88,-333.15 -16.38,110.97 -32.74,221.95 -48.04,332.91 -15.26,110.73 -30.57,221.7 -45.88,332.44 62.26,0.23 124.49,0.7 187.84,0.95zm873.61 49.04c0,-129.77 0,-259.79 0,-389.57 136.5,2.14 274.11,5.23 411.7,8.56 0,134.08 0,268.38 0,402.45 0,133.83 0,268.38 0,402.2 -78.63,114.08 -148.25,191.43 -208.58,230.52 -60.89,39.47 -132.15,57.43 -215.13,54.77 -102.65,-3.28 -185.48,-43.72 -250.07,-121.2 -64.25,-77.05 -113.95,-190.45 -149.6,-340.3 -17.83,-74.95 -31.67,-155.03 -40.42,-240.51 -8.72,-85.26 -13.1,-176.46 -13.1,-273.14 0,-101.44 5.49,-195.99 14.21,-283.86 8.75,-88.1 24,-169.8 43.67,-244.8 39.28,-149.79 95.93,-263.79 170.35,-341.72 57.7,-60.41 136.5,-90.49 235.88,-90.49 95.01,0 166.07,18.98 212.95,56.68 47,37.78 86.79,96.01 117.93,175.98 31.08,79.8 54.6,180.75 69.9,302.91 -86.27,32.61 -171.46,65.01 -256.64,96.92 -9.82,-71.45 -28.44,-126.19 -53.5,-164.07 -25.16,-38.06 -56.79,-57.11 -96.1,-57.4 -58.96,-0.41 -104.81,43.38 -139.78,130.97 -34.89,87.41 -52.41,226.22 -52.41,416.26 0,201.69 17.95,346.05 53.51,433.63 35.4,87.2 83.01,131.98 146.32,133.6 29.5,0.75 57.71,-7.87 84.09,-25.71 27.13,-18.35 57.87,-48.82 92.83,-91.92 0,-58.59 0,-117.41 0,-175.99 -60.07,-2.14 -119.03,-3.57 -178.01,-4.77zm1099.66 421.03c-101.54,-6.19 -202.01,-12.39 -302.48,-18.58 -14.19,104.31 -28.39,208.37 -42.58,312.44 -90.64,-4.52 -181.29,-9.29 -271.93,-14.29 53.52,-313.39 108.19,-627.96 161.63,-943.48 53.56,-316.23 108.11,-633.67 162.71,-951.82 97.19,0 194.38,0.23 291.56,0.23 53.52,323.16 107.14,647.71 160.54,973.25 53.6,326.69 107.02,655.11 161.61,984.44 -92.82,-6.89 -185.63,-13.56 -278.46,-20.47 -14.19,-107.16 -28.39,-214.56 -42.6,-321.72zm-56.78 -421.26c-16.37,-116.21 -32.74,-232.42 -48.04,-348.38 -15.27,-115.74 -30.59,-231.47 -45.87,-347.21 -16.38,115.03 -32.74,229.82 -48.05,344.35 -15.25,114.3 -31.66,228.61 -46.96,342.67 62.25,2.86 125.58,5.47 188.92,8.57zm464.12 -1193.52c82.99,0 165.98,0.25 248.98,0.25 53.5,183.59 107.14,368.12 160.52,553.41 53.63,186.18 108.11,373.39 162.72,561.28 0,-185.51 0,-371.25 0,-556.75 0,-185.75 0,-371.49 0,-557.47 82.98,0.23 167.07,0.48 251.16,0.48 0,341 0,682.24 0,1023.01 0,340.77 0,681.77 0,1022.78 -84.09,-9.99 -168.18,-19.76 -251.16,-28.1 -53.52,-189.08 -106.88,-377.5 -160.54,-565.09 -53.34,-186.5 -107.02,-372.19 -160.52,-557.23 0,182.18 0,364.11 0,546.03 0,181.95 0,363.88 0,545.81 -84.09,-8.09 -168.17,-15.95 -251.16,-23.81 0,-327.19 0,-654.88 0,-982.3 0,-327.19 0,-654.86 0,-982.3zm979.54 1.43c250.07,0.71 501.23,1.19 752.39,1.66 0,143.84 0,287.67 0,431.27 -80.8,207.17 -162.36,412.35 -242.42,614.85 -79.35,200.65 -160.53,399.11 -240.25,596.53 166,16.67 333.07,34.77 500.14,52.63 0,154.79 0,309.81 0,464.59 -273,-37.15 -544.91,-71.67 -816.82,-103.35 0,-142.41 0,-284.81 0,-427.45 79.71,-191.93 159.74,-385.65 239.16,-581.28 79.99,-197.05 159.43,-396.02 239.15,-596.75 -144.16,-4.3 -288.3,-7.86 -431.35,-11.68 0,-146.92 0,-293.85 0,-441.02zm1419.62 1886.49c-100.46,-13.34 -200.93,-26.43 -301.4,-39.53 -15.29,119.3 -29.48,238.13 -43.68,356.96 -90.64,-13.11 -181.28,-25.72 -271.9,-38.1 53.5,-354.35 108.29,-711.28 161.61,-1070.64 53.67,-361.71 108.11,-725.84 162.71,-1092.56 97.19,0.23 194.38,0.48 291.57,0.71 53.51,377.45 107.19,757.25 160.52,1139.95 53.68,385.26 108.12,773.69 162.73,1164.7 -93.92,-14.53 -186.75,-29.05 -279.57,-43.58 -14.2,-126.21 -28.39,-252.18 -42.59,-377.91zm-56.79 -493.89c-16.38,-135.97 -32.75,-271.71 -48.04,-406.73 -15.29,-135.02 -30.57,-269.81 -45.86,-404.34 -16.39,132.86 -32.77,265.53 -48.06,397.68 -15.27,131.91 -30.57,263.84 -45.86,395.06 62.24,5.95 124.49,12.14 187.82,18.33z"/>
   <path class="fil2" d="M11063.5 13167.73l53.02 0 5.63 22.86 317.12 0 6.86 -22.86 53.02 0 68.95 237.85 -74.17 31.64c-16.62,-39.43 -28.57,-65.1 -35.85,-77.02 -14.14,-23.52 -30.62,-42.24 -49.17,-55.66 -13.86,-10.43 -27.73,-15.57 -41.47,-15.57 -6.45,0 -10.85,1.82 -13.32,5.63 -2.34,3.65 -3.57,12.1 -3.57,25.35l0 388.58c0,23.02 0.68,37.26 2.05,43.06 1.38,5.96 3.58,10.44 6.88,13.91 3.16,3.32 7.68,5.64 13.31,6.8 5.63,1.15 20.74,1.65 45.33,1.65l0 93.42 -273.58 0 0 -93.42 16.61 0c18.27,0 30.08,-1.32 35.16,-4.14 5.08,-2.65 9.06,-7.62 11.82,-14.57 2.6,-6.96 3.98,-21.37 3.98,-43.24l0 -397.35c0,-11.27 -1.11,-18.39 -3.3,-21.37 -2.06,-2.82 -6.73,-4.31 -13.59,-4.31 -14.02,0 -29.67,6.3 -46.84,18.88 -17.3,12.59 -32.69,30.32 -46.15,53.34 -5.35,8.94 -16.76,34.29 -34.19,76.03l-73.49 -31.64 68.95 -237.85zm536.04 22.86l273.59 0 0 93.41 -25.14 0c-13.87,0 -23.34,1.66 -28.43,5.14 -5.08,3.31 -8.65,8.28 -10.84,14.57 -2.07,6.3 -3.16,20.05 -3.16,41.08l0 118.1 205.18 0 0 -126.88c0,-15.57 -0.82,-26 -2.33,-31.63 -2.2,-7.79 -5.77,-13.09 -10.72,-16.07 -5.08,-2.82 -16.21,-4.31 -33.51,-4.31l-21.01 0 0 -93.41 273.59 0 0 93.41 -22.94 0c-15.52,0 -25.82,1.49 -30.9,4.64 -5.09,2.98 -8.66,7.62 -10.72,13.58 -2.06,5.97 -3.02,20.21 -3.02,42.41l0 367.21c0,22.69 1.24,37.27 3.84,43.89 2.48,6.63 6.46,11.27 11.68,14.08 5.22,2.82 17.17,4.14 35.99,4.14l16.07 0 0 93.42 -273.59 0 0 -93.42 17.85 0c16.76,0 28.02,-1.65 34.06,-4.8 5.91,-3.31 10.03,-7.95 12.22,-14.25 2.34,-6.12 3.44,-20.53 3.44,-43.23l0 -143.44 -205.18 0 0 143.44c0,22.7 0.82,36.77 2.33,42.41 2.74,8.11 6.86,13.41 12.49,16.06 5.5,2.49 16.9,3.81 33.93,3.81l18.82 0 0 93.42 -273.59 0 0 -93.42 18.68 0c15.52,0 26.51,-1.65 32.69,-4.8 6.17,-3.31 10.44,-7.79 12.77,-13.58 2.33,-5.97 3.44,-18.72 3.44,-38.43l0 -368.04c0,-23.03 -1.11,-37.93 -3.44,-44.89 -2.33,-6.96 -5.91,-12.09 -10.71,-15.4 -4.81,-3.15 -14.28,-4.81 -28.3,-4.81l-25.13 0 0 -93.41zm678.05 0l468.34 0 64 214.99 -72.93 31.64c-12.36,-35.28 -26.78,-63.61 -43.26,-84.97 -16.48,-21.54 -34.75,-35.78 -54.66,-42.9 -19.92,-6.96 -43.27,-10.44 -69.78,-10.44l-85.69 0 0 169.94 27.88 0c20.88,0 35.02,-1.82 42.3,-5.63 7.28,-3.64 12.5,-9.61 15.66,-17.56 3.16,-7.95 4.81,-23.68 4.81,-47.37l0 -25.84 72.51 0 0 286.22 -72.51 0 0 -29.32c0,-19.87 -1.93,-34.45 -5.78,-43.56 -3.84,-9.11 -9.06,-15.4 -15.65,-18.55 -6.73,-3.31 -21.43,-4.97 -44.23,-4.97l-24.99 0 0 155.53c0,16.4 0.69,26.5 2.06,30.15 1.23,3.48 3.98,6.29 7.82,8.11 3.85,1.99 12.23,2.98 25.14,2.98l47.11 0c35.16,0 64.68,-6.12 88.85,-18.22 24.17,-12.25 45.74,-31.96 64.56,-58.96 18.95,-27.17 33.51,-59.46 43.67,-96.73l73.48 30.47 -73.61 251.77 -485.1 0 0 -93.42 14.01 0c18.82,0 31.46,-1.65 37.91,-4.8 6.46,-3.31 10.99,-8.95 13.6,-17.06 1.37,-4.81 2.06,-18.55 2.06,-41.25l0 -369.03c0,-20.04 -1.1,-33.29 -3.43,-39.42 -2.2,-6.13 -5.77,-10.77 -10.72,-13.75 -4.81,-3.15 -14.28,-4.64 -28.43,-4.64l-25 0 0 -93.41zm873.49 0l468.34 0 64 214.99 -72.93 31.64c-12.36,-35.28 -26.78,-63.61 -43.26,-84.97 -16.49,-21.54 -34.75,-35.78 -54.66,-42.9 -19.92,-6.96 -43.27,-10.44 -69.78,-10.44l-85.69 0 0 169.94 27.88 0c20.87,0 35.02,-1.82 42.3,-5.63 7.28,-3.64 12.5,-9.61 15.66,-17.56 3.15,-7.95 4.8,-23.68 4.8,-47.37l0 -25.84 72.52 0 0 286.22 -72.52 0 0 -29.32c0,-19.87 -1.92,-34.45 -5.77,-43.56 -3.84,-9.11 -9.06,-15.4 -15.65,-18.55 -6.73,-3.31 -21.43,-4.97 -44.23,-4.97l-24.99 0 0 155.53c0,16.4 0.69,26.5 2.06,30.15 1.23,3.48 3.98,6.29 7.82,8.11 3.85,1.99 12.22,2.98 25.13,2.98l47.12 0c35.16,0 64.68,-6.12 88.85,-18.22 24.17,-12.25 45.74,-31.96 64.56,-58.96 18.95,-27.17 33.51,-59.46 43.67,-96.73l73.48 30.47 -73.61 251.77 -485.1 0 0 -93.42 14.01 0c18.82,0 31.45,-1.65 37.91,-4.8 6.46,-3.31 10.99,-8.95 13.59,-17.06 1.38,-4.81 2.07,-18.55 2.07,-41.25l0 -369.03c0,-20.04 -1.1,-33.29 -3.43,-39.42 -2.2,-6.13 -5.77,-10.77 -10.72,-13.75 -4.81,-3.15 -14.28,-4.64 -28.43,-4.64l-25 0 0 -93.41zm582.75 0l301.59 0 0 93.41 -23.35 0c-12.36,0 -20.19,1.16 -23.48,3.65 -3.43,2.48 -5.08,6.46 -5.08,11.92 0,2.82 0.69,5.97 2.06,8.95 1.37,3.14 5.22,9.27 11.67,18.71l57.83 84.98 69.9 -87.13c8.65,-11.59 12.91,-20.04 12.91,-25.18 0,-5.3 -1.79,-9.27 -5.36,-11.92 -3.71,-2.65 -12.08,-3.98 -25.13,-3.98l-20.87 0 0 -93.41 252.15 0 0 93.41c-18.54,0 -31.58,1.33 -39.28,3.98 -7.69,2.65 -16.48,7.95 -26.36,15.9 -7.28,5.96 -15.25,14.58 -23.77,25.84l-135.41 168.78 149.97 220.63c17.99,23.19 32.96,38.26 44.64,44.88 11.81,6.63 28.01,9.94 48.35,9.94l0 93.42 -307.38 0 0 -93.42 28.16 0c13.04,0 21.28,-1.16 24.44,-3.31 3.3,-2.32 4.81,-5.8 4.81,-10.27 0,-6.13 -4.39,-15.57 -13.18,-28.16l-77.19 -112.3 -89.54 111.64c-7.56,10.1 -11.26,19.21 -11.26,27.16 0,4.48 1.91,8.29 6.03,11.1 3.99,2.82 12.23,4.14 24.86,4.14l22.12 0 0 93.42 -256.28 0 0 -93.42c17.85,0 30.35,-1.16 37.77,-3.48 7.41,-2.15 14.28,-5.96 20.46,-11.09 10.44,-9.11 23.35,-22.53 38.32,-40.25l148.6 -185.18 -141.73 -206.72c-14.56,-18.71 -26.37,-30.64 -35.58,-35.77 -9.33,-4.97 -24.71,-7.46 -46.41,-7.46l0 -93.41zm654.97 0l296.66 0c37.63,0 68.81,4.63 93.67,13.74 24.86,9.28 46.14,23.36 64,42.07 17.86,18.72 31.59,40.92 41.2,66.76 9.75,25.67 14.56,52.83 14.56,81.65 0,57.81 -18.4,106.34 -55.35,145.6 -36.95,39.09 -87.9,58.63 -152.86,58.63l-95.87 0 0 126.88c0,15.73 0.96,25.84 2.89,29.98 2.34,6.29 6.04,10.76 10.98,13.75 4.96,2.81 13.33,4.3 25.15,4.3l28.56 0 0 93.42 -273.59 0 0 -93.42 18.96 0c16.76,0 27.88,-1.49 33.23,-4.3 5.36,-2.99 9.35,-7.62 11.68,-13.92 2.47,-6.29 3.7,-19.38 3.7,-39.09l0 -372.35c0,-20.87 -1.09,-34.45 -3.29,-41.07 -2.05,-6.63 -5.5,-11.6 -10.3,-14.58 -4.67,-3.15 -13.6,-4.64 -26.92,-4.64l-27.06 0 0 -93.41zm206.01 110.31l0 192.8 48.08 0c29.25,0 50.81,-3.65 64.55,-10.93 13.73,-7.29 24.72,-18.56 33.09,-33.63 8.39,-15.07 12.51,-32.96 12.51,-53.83 0,-31.14 -9.9,-55.82 -29.81,-74.04 -14.83,-13.58 -36.81,-20.37 -65.79,-20.37l-62.63 0zm336.35 -110.31l468.34 0 64 214.99 -72.93 31.64c-12.36,-35.28 -26.78,-63.61 -43.26,-84.97 -16.49,-21.54 -34.75,-35.78 -54.66,-42.9 -19.92,-6.96 -43.27,-10.44 -69.78,-10.44l-85.69 0 0 169.94 27.88 0c20.87,0 35.02,-1.82 42.3,-5.63 7.28,-3.64 12.5,-9.61 15.65,-17.56 3.16,-7.95 4.81,-23.68 4.81,-47.37l0 -25.84 72.52 0 0 286.22 -72.52 0 0 -29.32c0,-19.87 -1.92,-34.45 -5.77,-43.56 -3.84,-9.11 -9.06,-15.4 -15.65,-18.55 -6.74,-3.31 -21.43,-4.97 -44.23,-4.97l-24.99 0 0 155.53c0,16.4 0.69,26.5 2.05,30.15 1.24,3.48 3.99,6.29 7.83,8.11 3.85,1.99 12.22,2.98 25.13,2.98l47.12 0c35.16,0 64.68,-6.12 88.85,-18.22 24.17,-12.25 45.74,-31.96 64.55,-58.96 18.96,-27.17 33.52,-59.46 43.68,-96.73l73.48 30.47 -73.62 251.77 -485.09 0 0 -93.42 14.01 0c18.82,0 31.45,-1.65 37.91,-4.8 6.45,-3.31 10.99,-8.95 13.59,-17.06 1.38,-4.81 2.07,-18.55 2.07,-41.25l0 -369.03c0,-20.04 -1.1,-33.29 -3.43,-39.42 -2.2,-6.13 -5.78,-10.77 -10.72,-13.75 -4.81,-3.15 -14.28,-4.64 -28.43,-4.64l-25 0 0 -93.41zm591.81 0l345.41 0c22.25,0 46.56,2.48 72.93,7.28 26.36,4.81 50.13,15.57 71.41,31.97 21.3,16.56 37.91,37.43 49.59,62.78 11.81,25.17 17.71,53.66 17.71,85.46 0,51.35 -15.24,93.09 -45.6,125.06 -30.49,31.8 -66.47,52.67 -107.95,62.28l115.23 161.99 4.81 7.29c7.42,10.93 14.28,19.21 20.47,24.51 6.17,5.3 12.35,9.11 18.4,11.43 6.18,2.15 14.83,3.31 25.82,3.31l24.03 0 0 93.42 -179.64 0 -179.91 -291.19 -46.7 0 0 134.83c0,23.19 1.09,37.93 3.16,44.23 2.2,6.29 5.63,11.09 10.3,14.07 4.66,3.15 14.14,4.64 28.43,4.64l25.68 0 0 93.42 -273.58 0 0 -93.42 25.13 0c13.19,0 22.52,-1.65 28.02,-5.13 5.63,-3.32 9.75,-8.45 12.36,-15.24 1.37,-3.98 2.06,-16.07 2.06,-36.44l0 -381.13c0,-14.9 -0.96,-25.5 -3.02,-31.8 -2.06,-6.29 -5.36,-10.43 -9.89,-12.42 -6.45,-3.48 -13.87,-5.3 -22.25,-5.3l-11.4 0.49 -21.01 0 0 -96.39zm206.01 111.3l0 174.91 83.09 0c32.69,0 57.13,-3.64 73.34,-10.93 16.2,-7.29 28.29,-17.72 36.54,-31.14 8.1,-13.58 12.22,-30.14 12.22,-49.52 0,-17.73 -3.85,-32.96 -11.4,-45.72 -7.69,-12.75 -18.54,-22.19 -32.55,-28.32 -14.01,-6.13 -37.09,-9.28 -68.95,-9.28l-92.29 0zm434.96 -111.3l273.58 0 0 93.41 -24.99 0c-14.42,0 -24.04,1.49 -28.71,4.64 -4.67,2.98 -8.24,7.95 -10.44,14.58 -2.33,6.62 -3.43,19.38 -3.43,38.09l0 374.84c0,20.37 0.96,33.45 2.74,39.42 1.93,5.79 5.23,9.93 9.76,12.58 5.63,3.81 14.01,5.8 25.27,5.8l29.8 0 0 93.42 -273.58 0 0 -93.42 22.25 0c15.93,0 26.37,-1.32 31.17,-4.14 4.81,-2.81 8.39,-7.12 10.72,-13.08 2.34,-5.97 3.43,-17.89 3.43,-35.78l0 -376.32c0,-21.04 -1.09,-34.79 -3.43,-41.41 -2.33,-6.63 -6.18,-11.76 -11.54,-15.41 -3.84,-2.48 -12.91,-3.81 -27.47,-3.81l-25.13 0 0 -93.41zm332.78 0l468.33 0 64.01 214.99 -72.94 31.64c-12.35,-35.28 -26.77,-63.61 -43.26,-84.97 -16.48,-21.54 -34.75,-35.78 -54.66,-42.9 -19.91,-6.96 -43.26,-10.44 -69.77,-10.44l-85.7 0 0 169.94 27.88 0c20.88,0 35.02,-1.82 42.3,-5.63 7.28,-3.64 12.5,-9.61 15.66,-17.56 3.16,-7.95 4.81,-23.68 4.81,-47.37l0 -25.84 72.51 0 0 286.22 -72.51 0 0 -29.32c0,-19.87 -1.93,-34.45 -5.77,-43.56 -3.85,-9.11 -9.07,-15.4 -15.66,-18.55 -6.73,-3.31 -21.42,-4.97 -44.23,-4.97l-24.99 0 0 155.53c0,16.4 0.69,26.5 2.06,30.15 1.23,3.48 3.99,6.29 7.83,8.11 3.84,1.99 12.22,2.98 25.13,2.98l47.11 0c35.16,0 64.69,-6.12 88.86,-18.22 24.17,-12.25 45.73,-31.96 64.55,-58.96 18.95,-27.17 33.51,-59.46 43.67,-96.73l73.48 30.47 -73.61 251.77 -485.09 0 0 -93.42 14.01 0c18.81,0 31.45,-1.65 37.9,-4.8 6.46,-3.31 10.99,-8.95 13.6,-17.06 1.37,-4.81 2.06,-18.55 2.06,-41.25l0 -369.03c0,-20.04 -1.1,-33.29 -3.43,-39.42 -2.2,-6.13 -5.77,-10.77 -10.71,-13.75 -4.81,-3.15 -14.29,-4.64 -28.44,-4.64l-24.99 0 0 -93.41zm594.28 0l226.88 0 164.54 395.03 0 -241.82c0,-20.87 -0.96,-33.79 -2.89,-38.93 -2.61,-7.78 -6.18,-13.25 -10.85,-16.23 -4.53,-3.15 -13.32,-4.64 -26.5,-4.64l-27.33 0 0 -93.41 231.55 0 0 93.41 -25.54 0c-12.78,0 -21.98,1.83 -27.47,5.3 -5.49,3.65 -9.21,8.45 -11.41,14.58 -2.05,6.13 -3.15,19.38 -3.15,39.75l0 523.74 -116.06 0 -207.79 -498.89 0 349.16c0,20.04 0.96,32.79 3.02,38.42 1.92,5.47 5.63,9.78 10.71,13.09 5.22,3.15 14.29,4.8 27.06,4.8l26.78 0 0 93.42 -231.55 0 0 -93.42 24.02 0c13.33,0 22.39,-1.32 27.34,-4.14 4.94,-2.81 8.92,-7.45 11.81,-14.24 2.89,-6.79 4.39,-17.06 4.39,-30.65l0 -388.41c0,-14.91 -1.37,-25.84 -3.98,-32.8 -2.75,-6.95 -6.31,-12.09 -10.85,-15.07 -4.53,-3.15 -12.08,-4.64 -22.79,-4.64l-29.94 0 0 -93.41zm1041.32 0l57.13 0 55.07 242.98 -74.85 26.17c-25,-57.8 -48.48,-98.72 -70.45,-122.9 -30.63,-33.29 -63.73,-49.86 -99.44,-49.86 -25.96,0 -50.27,8.78 -72.92,26.18 -22.67,17.39 -40.66,43.06 -53.98,76.85 -13.33,33.96 -19.92,73.54 -19.92,119.09 0,69.24 15.25,128.87 45.74,178.89 30.35,50.02 70.32,75.03 119.62,75.03 31.45,0 61.53,-10.77 90.51,-32.46 36.26,-26.67 67.57,-62.61 93.8,-107.83l62.36 55.82c-40.52,66.58 -77.46,112.96 -110.97,139.13 -51.78,40.41 -109.33,60.62 -172.92,60.62 -52.73,0 -100.53,-15.24 -143.38,-45.71 -42.71,-30.48 -76.77,-73.21 -102.32,-128.04 -25.41,-54.99 -38.18,-114.78 -38.18,-179.71 0,-64.6 12.36,-123.4 37.22,-176.4 24.72,-53.17 58.5,-94.58 101.36,-124.23 42.71,-29.65 90.37,-44.56 142.83,-44.56 53.42,0 100.12,13.42 140.36,40.09l13.33 -29.15zm176.89 0l468.33 0 64.01 214.99 -72.94 31.64c-12.35,-35.28 -26.77,-63.61 -43.26,-84.97 -16.48,-21.54 -34.75,-35.78 -54.65,-42.9 -19.92,-6.96 -43.27,-10.44 -69.78,-10.44l-85.7 0 0 169.94 27.88 0c20.88,0 35.03,-1.82 42.31,-5.63 7.28,-3.64 12.49,-9.61 15.65,-17.56 3.16,-7.95 4.81,-23.68 4.81,-47.37l0 -25.84 72.51 0 0 286.22 -72.51 0 0 -29.32c0,-19.87 -1.92,-34.45 -5.77,-43.56 -3.85,-9.11 -9.06,-15.4 -15.66,-18.55 -6.73,-3.31 -21.42,-4.97 -44.22,-4.97l-25 0 0 155.53c0,16.4 0.69,26.5 2.06,30.15 1.24,3.48 3.99,6.29 7.83,8.11 3.85,1.99 12.22,2.98 25.13,2.98l47.11 0c35.16,0 64.69,-6.12 88.86,-18.22 24.17,-12.25 45.74,-31.96 64.55,-58.96 18.96,-27.17 33.52,-59.46 43.67,-96.73l73.49 30.47 -73.62 251.77 -485.09 0 0 -93.42 14.01 0c18.81,0 31.45,-1.65 37.9,-4.8 6.46,-3.31 11,-8.95 13.6,-17.06 1.38,-4.81 2.06,-18.55 2.06,-41.25l0 -369.03c0,-20.04 -1.1,-33.29 -3.43,-39.42 -2.2,-6.13 -5.77,-10.77 -10.71,-13.75 -4.81,-3.15 -14.29,-4.64 -28.43,-4.64l-25 0 0 -93.41z"/>
   <path class="fil3" d="M12389.15 7942.96c-209.48,39.94 -418.27,83.87 -625.42,133.53 -243.46,58.37 -488.59,124.99 -725.88,207.75 59.11,652.31 121.9,1354.49 191.02,2005.97l2257.11 0c-669.51,-456.76 -1109.09,-1225.63 -1109.09,-2097.25 0,-84.37 4.22,-167.75 12.26,-250zm3952.95 2347.25l2123.35 0c69.12,-651.48 131.91,-1353.66 191.02,-2005.97 -237.29,-82.76 -482.42,-149.38 -725.88,-207.75 -162.25,-38.89 -325.5,-74.28 -489.31,-106.98 6.43,73.64 9.91,148.14 9.91,223.45 0,871.62 -439.58,1640.49 -1109.09,2097.25zm-4256.64 4098.75c778.25,870.16 1710.1,1460.56 2761.7,1961.55 1051.6,-500.99 1983.45,-1091.39 2761.7,-1961.55l-5523.4 0z"/>
   <path class="fil6" d="M15682.27 15829.07l-3411.14 -1338.33c6.7,8.71 13.44,17.4 20.22,26.07 506.64,563.97 1301.68,1126.72 2555.65,1766.13 304.9,-155.47 582.18,-306.34 835.27,-453.87zm-1410.68 -1443.94l2268.5 890.02c264.58,-192.02 489.67,-380.44 680.19,-567.95l-820.89 -322.07 -2127.8 0zm-1740.18 -4133.32l-1224.17 -480.28c12.63,165.12 22.49,325.09 30.31,480.28l1193.86 0zm33.63 -821.63c-159.16,-304.84 -260.81,-644.46 -290.59,-1004.47 -204.54,-80.25 -409.07,-160.49 -613.6,-240.74 -178.16,46.6 -355.19,96.75 -530.69,149.8 33.6,194.84 62.1,383.48 86.43,566.37l1348.45 529.04zm4363.81 821.63l1427.6 0c4.44,-88.07 9.46,-177.5 15.32,-268.7l-1154.97 -453.14c-137.08,237.09 -309.77,451 -510.78,634.42 74.27,29.13 148.55,58.28 222.83,87.42zm585.02 -1495.76l935.52 367.05c29.66,-251.62 67.25,-514.7 114.72,-789.82l-59.42 -23.31c-308.49,-91.37 -621.49,-173.52 -936.8,-242.95 2.31,45.39 3.48,91.07 3.48,137.04 0,189.28 -19.83,373.93 -57.5,551.99z"/>
   <path class="fil7" d="M13917.94 7725.28c120.01,-165.96 304.7,-404.47 436.71,-640.26 86.46,-154.45 150.33,-307.76 158.61,-438.78 8.53,-134.48 2.65,-125.9 258.24,-132.25 42.82,-1.06 82.87,0.22 82.87,52.83l0 3486.24c0,62.21 -125.83,35.37 -247.62,35.37 -220.86,0 -739.72,3.26 -958.5,23.4 -164.38,-147.55 -220.13,-343.24 -262.47,-538.07 -146.08,-671.83 121.13,-1298.64 532.16,-1848.48zm606.27 -1339.29c-98.47,-165.08 -141.47,-265.17 -332.46,-348.41 208.96,-71.45 431.51,-113.6 662.71,-121.55 -1.32,405.81 30.57,443.16 -83.79,449.57 -87.71,4.92 -165.62,12.76 -246.46,20.39zm-209.17 -49.81c53.95,86.44 53.84,70.97 -160.53,128.19 -509.7,136.05 -1120.45,576.2 -1399.81,1024.86 196.79,-595.3 630.6,-1082.73 1189.69,-1350.52 127.78,7.58 300.47,84.93 370.65,197.47zm-76.87 272.63c50.1,-14.93 89.9,-22.98 104.77,-17.13 22.36,8.8 18.63,52.27 3.08,107.64 -25.09,89.31 -74.75,194.72 -131.69,300.83 -148.15,275.97 -393.92,500.05 -640.84,920.03 -364.3,619.64 -474.75,1184.09 -293.29,1881.43 -436.33,-453.6 -665.18,-1059.67 -639.02,-1688.2 243.25,-722.93 870.78,-1288.51 1596.99,-1504.6zm1713.52 1116.47c-120.01,-165.96 -304.7,-404.47 -436.71,-640.26 -86.46,-154.45 -150.33,-307.76 -158.61,-438.78 -8.53,-134.48 -2.65,-125.9 -258.24,-132.25 -42.82,-1.06 -82.87,0.22 -82.87,52.83l0 3486.24c0,62.21 125.83,35.37 247.62,35.37 220.86,0 739.72,3.26 958.5,23.4 164.38,-147.55 220.13,-343.24 262.47,-538.07 146.08,-671.83 -121.13,-1298.64 -532.16,-1848.48zm-606.27 -1339.29c98.47,-165.08 141.47,-265.17 332.46,-348.41 -208.96,-71.45 -431.51,-113.6 -662.71,-121.55 1.32,405.81 -30.57,443.16 83.79,449.57 87.71,4.92 165.62,12.76 246.46,20.39zm209.17 -49.81c-53.95,86.44 -53.84,70.97 160.53,128.19 509.7,136.05 1120.45,576.2 1399.81,1024.86 -196.79,-595.3 -630.6,-1082.73 -1189.69,-1350.52 -127.78,7.58 -300.47,84.93 -370.65,197.47zm76.87 272.63c-50.1,-14.93 -89.9,-22.98 -104.77,-17.13 -22.36,8.8 -18.63,52.27 -3.08,107.64 25.09,89.31 74.75,194.72 131.69,300.83 148.15,275.97 393.92,500.05 640.84,920.03 364.3,619.64 474.75,1184.09 293.29,1881.43 436.33,-453.6 665.18,-1059.67 639.02,-1688.2 -243.25,-722.93 -870.78,-1288.51 -1596.99,-1504.6z"/>
   <path class="fil8" d="M13917.95 7725.28c120,-165.96 304.7,-404.47 436.7,-640.26 86.46,-154.44 150.33,-307.75 158.62,-438.77 8.52,-134.48 2.64,-125.9 258.23,-132.25 42.82,-1.06 82.87,0.21 82.87,52.82l0 3486.23c0,62.21 -125.83,35.37 -247.62,35.37 -220.86,0 -739.72,3.26 -958.49,23.4 -164.38,-147.55 -220.13,-343.24 -262.47,-538.07 -146.08,-671.83 121.12,-1298.64 532.16,-1848.47zm606.26 -1339.28c-98.47,-165.08 -141.47,-265.17 -332.45,-348.41 208.95,-71.45 431.5,-113.6 662.7,-121.55 -1.32,405.81 30.57,443.16 -83.79,449.57 -87.7,4.92 -165.62,12.76 -246.46,20.39zm-209.16 -49.81c53.94,86.44 53.84,70.97 -160.53,128.19 -509.7,136.05 -1120.45,576.2 -1399.8,1024.86 196.78,-595.31 630.59,-1082.74 1189.67,-1350.52 127.78,7.58 300.47,84.93 370.66,197.47zm-76.88 272.63c50.1,-14.93 89.9,-22.98 104.77,-17.14 22.36,8.8 18.63,52.28 3.08,107.65 -25.09,89.31 -74.75,194.71 -131.69,300.82 -148.15,275.97 -393.92,500.05 -640.83,920.03 -364.3,619.64 -474.75,1184.08 -293.29,1881.42 -436.33,-453.6 -665.18,-1059.67 -639.02,-1688.19 243.25,-722.93 870.78,-1288.51 1596.98,-1504.59zm1713.51 1116.46c-120,-165.96 -304.7,-404.47 -436.7,-640.26 -86.46,-154.44 -150.33,-307.75 -158.62,-438.77 -8.52,-134.48 -2.64,-125.9 -258.23,-132.25 -42.82,-1.06 -82.87,0.21 -82.87,52.82l0 3486.23c0,62.21 125.83,35.37 247.62,35.37 220.86,0 739.72,3.26 958.49,23.4 164.38,-147.55 220.13,-343.24 262.47,-538.07 146.08,-671.83 -121.12,-1298.64 -532.16,-1848.47zm-606.26 -1339.28c98.47,-165.08 141.47,-265.17 332.45,-348.41 -208.95,-71.45 -431.5,-113.6 -662.7,-121.55 1.32,405.81 -30.57,443.16 83.79,449.57 87.7,4.92 165.62,12.76 246.46,20.39zm209.16 -49.81c-53.94,86.44 -53.84,70.97 160.53,128.19 509.7,136.05 1120.45,576.2 1399.8,1024.86 -196.78,-595.31 -630.59,-1082.74 -1189.67,-1350.52 -127.78,7.58 -300.47,84.93 -370.66,197.47zm76.88 272.63c-50.1,-14.93 -89.9,-22.98 -104.77,-17.14 -22.36,8.8 -18.63,52.28 -3.08,107.65 25.09,89.31 74.75,194.71 131.69,300.82 148.15,275.97 393.92,500.05 640.83,920.03 364.3,619.64 474.75,1184.08 293.29,1881.42 436.33,-453.6 665.18,-1059.67 639.02,-1688.19 -243.25,-722.93 -870.78,-1288.51 -1596.98,-1504.59z"/>
   <g style="clip-path:url(#id0)">
    <g>
     <path id="_1" class="fil9" d="M13280.21 9801.61c-181.46,-697.35 -71.01,-1261.79 293.29,-1881.43 246.91,-419.98 492.68,-644.06 640.83,-920.02 56.94,-106.12 106.6,-211.52 131.69,-300.83 15.56,-55.38 19.28,-98.84 -3.07,-107.64 -14.88,-5.85 -54.68,2.2 -104.77,17.12 -726.21,216.1 -1353.74,781.68 -1596.99,1504.6 -26.16,628.52 202.69,1234.59 639.02,1688.2zm637.74 -2076.33c-411.03,549.83 -678.24,1176.64 -532.16,1848.47 42.34,194.83 98.09,390.52 262.46,538.07 218.78,-20.14 737.64,-23.39 958.5,-23.39 121.79,0 247.62,26.83 247.62,-35.38l0 -3486.23c0,-52.61 -40.05,-53.89 -82.86,-52.82 -255.6,6.35 -249.72,-2.22 -258.24,132.25 -8.29,131.01 -72.16,284.33 -158.61,438.77 -132.01,235.79 -316.71,474.3 -436.71,640.26zm1097.31 -1158.46l0 3486.23c0,62.21 125.83,35.38 247.62,35.38 220.86,0 739.72,3.25 958.5,23.39 164.37,-147.55 220.12,-343.24 262.46,-538.07 146.08,-671.83 -121.13,-1298.64 -532.16,-1848.47 -120,-165.96 -304.7,-404.47 -436.71,-640.26 -86.45,-154.44 -150.32,-307.76 -158.61,-438.77 -8.52,-134.47 -2.64,-125.9 -258.24,-132.25 -42.81,-1.07 -82.86,0.21 -82.86,52.82zm1280.87 1353.36c364.3,619.64 474.75,1184.08 293.29,1881.43 436.33,-453.61 665.18,-1059.68 639.02,-1688.2 -243.25,-722.92 -870.78,-1288.5 -1596.99,-1504.6 -50.09,-14.92 -89.89,-22.97 -104.77,-17.12 -22.35,8.8 -18.63,52.26 -3.07,107.64 25.09,89.31 74.75,194.71 131.69,300.83 148.15,275.96 393.92,500.04 640.83,920.02z"/>
    </g>
    <g style="clip-path:url(#id1)">
     <g>
      <path id="_2" class="fil10" d="M13118.16 8816.27c13.21,-80.04 30.88,-159.45 52.92,-238.56 21.97,-78.9 48.34,-157.56 78.95,-236.29 30.6,-78.66 65.31,-157.08 104.03,-235.62 38.49,-78.06 81.41,-157.11 128.62,-237.43 34.4,-58.51 67.46,-111.47 99.29,-159.98 33.06,-50.4 65.47,-97.29 97.08,-141.41 60.61,-84.63 123.68,-165.97 183.08,-242.57l0.46 -0.6c101.66,-131.1 191.98,-247.61 258.85,-372.18 7.19,-13.4 13.88,-26.03 19.95,-37.73 5.21,-10.07 11.64,-22.73 19.59,-38.7 6.25,-12.52 12.47,-25.28 18.57,-38.11l1.27 -2.48c5.9,-12.43 11.02,-23.45 15.12,-32.67 5.18,-11.58 10.13,-23.06 14.8,-34.35 4.39,-10.61 8.84,-21.89 13.34,-33.85l3.67 -9.89c-73.4,23.35 -145.81,50.48 -216.84,81.16 -84.88,36.66 -167.36,78.16 -246.81,124.08 -80.39,46.46 -157.97,97.49 -232.15,152.66 -73.94,55 -144.89,114.43 -212.23,177.89 -66.18,62.36 -128.85,128.63 -187.37,198.41 -58.07,69.21 -111.74,141.4 -160.45,216.14 -47.94,73.56 -91.35,149.75 -129.7,228.18 -36.52,74.69 -68.78,152.21 -96.34,232.24 -2.45,70.61 -1.49,141.28 2.8,211.72 4.45,73.26 12.49,145.69 24.01,217.01 11.59,71.88 26.97,143.63 46.02,214.95 19.02,71.26 41.53,141.21 67.4,209.56 23.1,61.07 49.34,121.74 78.58,181.79 28.98,59.52 60.68,117.76 95,174.5 13.61,22.5 27.47,44.53 41.55,66.07 -4.94,-48.74 -8.39,-97.47 -10.34,-146.21 -3.05,-76.75 -2.28,-152.07 2.26,-226.21 4.56,-74.48 12.94,-148.23 25.02,-221.52zm1328.54 -1678.21c-110.61,197.58 -255.99,395.24 -372.04,553.02l-0.14 0.19 -36.17 49.25 -1.95 2.49 -34.01 46.72 0.14 0.11c-50.74,67.93 -98.61,135.99 -142.93,203.89 -44.66,68.44 -86.87,138.38 -126.11,209.74 -38.77,70.5 -74.42,142.12 -106.39,214.73 -32.04,72.79 -60.17,145.92 -83.84,219.2 -23.52,72.87 -43.04,147.06 -58.06,222.51 -14.93,75.13 -25.25,150.87 -30.4,227.08 -5.13,76.11 -5.19,153.1 0.33,230.81 5.51,77.52 16.64,155.94 33.84,235.1 5.68,26.14 11.1,50.27 15.9,70.05 5.14,21.21 11.06,43.86 18.11,68.57 6.93,24.28 13.83,46.63 20.64,66.24 7.39,21.3 15.43,42.2 24.23,62.5 8.01,18.45 17.15,37.35 27.63,56.74 10.25,18.99 21.08,37.04 32.49,53.87 10.07,14.87 21.51,30.04 34.4,45.5 7.99,9.57 16.29,18.9 24.92,27.96l40.22 -2.52c21.79,-1.27 46.83,-2.54 74.64,-3.77 29.32,-1.31 62.04,-2.55 97.17,-3.72 35.39,-1.17 73.23,-2.24 112.62,-3.2 43.58,-1.06 88.95,-1.98 134.67,-2.77 49.29,-0.84 99.08,-1.53 147.66,-2.05 59.37,-0.65 114.27,-1.12 163.17,-1.41 83.03,-0.51 128.22,-0.7 149.31,-0.7 26.75,0 60.17,1.77 91.81,3.44l2.56 0.13c15.78,0.84 31.02,1.65 47.57,2l0 -3368.48 -17.82 0.42c-22.57,0.5 -42.53,0.96 -62.04,1.6 -16.22,0.52 -31.31,1.24 -46.5,2.36l-1.95 0.13c-0.63,9.43 -1.42,18.98 -1.86,28.41 -1.18,18.92 -3.45,38.7 -6.7,59.21 -3.07,19.42 -7.16,39.57 -12.14,60.27 -5.14,21.38 -10.74,41.63 -16.73,60.81 -6.19,19.86 -13.24,40.21 -21.03,60.93l-0.95 2.35c-7.85,20.8 -15.59,40.01 -23.24,57.76 -7.65,17.74 -17.02,38.15 -27.94,60.96 -11.3,23.61 -21.43,43.97 -30.49,61.35 -10.16,19.51 -21.07,39.63 -32.6,60.22zm674.24 -516.78l0 3368.48c16.55,-0.35 31.79,-1.16 47.57,-2l2.56 -0.12c31.64,-1.68 65.06,-3.45 91.81,-3.45 21.09,0 66.28,0.19 149.31,0.7 48.9,0.29 103.8,0.76 163.17,1.41 48.58,0.52 98.37,1.21 147.66,2.05 45.72,0.79 91.09,1.71 134.67,2.77 39.39,0.96 77.23,2.03 112.62,3.2 35.13,1.17 67.85,2.41 97.17,3.72 27.81,1.23 52.85,2.5 74.64,3.77l40.23 2.52c8.63,-9.06 16.93,-18.39 24.91,-27.95 12.9,-15.45 24.33,-30.63 34.4,-45.51 11.42,-16.83 22.24,-34.88 32.5,-53.87 10.47,-19.38 19.62,-38.29 27.62,-56.74 8.81,-20.3 16.84,-41.19 24.23,-62.5 6.82,-19.63 13.72,-41.96 20.64,-66.24 7.04,-24.69 12.99,-47.37 18.12,-68.57 4.81,-19.86 10.21,-43.87 15.89,-70.05 17.21,-79.16 28.33,-157.58 33.85,-235.1 5.52,-77.72 5.46,-154.7 0.32,-230.81 -5.14,-76.21 -15.45,-151.94 -30.39,-227.07 -15.02,-75.45 -34.54,-149.65 -58.07,-222.52 -23.66,-73.27 -51.79,-146.41 -83.84,-219.19 -31.97,-72.62 -67.61,-144.23 -106.38,-214.74 -39.24,-71.36 -81.47,-141.31 -126.13,-209.74 -44.31,-67.91 -92.2,-135.96 -142.95,-203.86l-4.34 -6.44 -31.45 -42.91 -36.31 -49.45c-116.07,-157.78 -261.45,-355.45 -372.04,-553.01 -11.53,-20.6 -22.44,-40.73 -32.59,-60.22 -9.01,-17.33 -19.14,-37.63 -30.49,-61.35 -10.91,-22.79 -20.3,-43.23 -27.95,-60.97 -8.3,-19.26 -16.38,-39.3 -24.19,-60.1 -7.78,-20.73 -14.83,-41.09 -21.03,-60.93 -5.98,-19.17 -11.58,-39.43 -16.72,-60.8 -4.98,-20.7 -9.06,-40.82 -12.14,-60.23 -3.25,-20.49 -5.53,-40.25 -6.72,-59.17 -0.47,-9.49 -1.21,-19.01 -1.85,-28.49l-1.95 -0.14c-15.18,-1.12 -30.28,-1.84 -46.49,-2.36 -19.51,-0.64 -39.48,-1.1 -62.05,-1.6l-17.82 -0.42zm1394.64 1484.53c38.72,78.54 73.43,156.96 104.02,235.61 30.63,78.74 57,157.38 78.97,236.29 22.03,79.1 39.7,158.51 52.9,238.56 12.09,73.27 20.47,147.03 25.03,221.52 4.54,74.14 5.31,149.48 2.25,226.21 -1.94,48.74 -5.4,97.47 -10.34,146.21 14.08,-21.54 27.94,-43.57 41.55,-66.07 34.32,-56.74 66.02,-114.98 95,-174.5 29.24,-60.05 55.48,-120.72 78.58,-181.79 25.87,-68.35 48.38,-138.3 67.4,-209.56 19.05,-71.32 34.43,-143.07 46.02,-214.95 11.52,-71.32 19.56,-143.75 24.01,-217.01 4.29,-70.44 5.25,-141.11 2.8,-211.72 -27.56,-80.03 -59.82,-157.55 -96.34,-232.24 -38.35,-78.43 -81.76,-154.62 -129.7,-228.18 -48.71,-74.74 -102.38,-146.93 -160.45,-216.14 -58.52,-69.78 -121.19,-136.05 -187.38,-198.41 -67.33,-63.46 -138.28,-122.89 -212.22,-177.89 -74.18,-55.17 -151.76,-106.2 -232.15,-152.66 -79.45,-45.92 -161.93,-87.42 -246.81,-124.08 -71.03,-30.68 -143.44,-57.81 -216.83,-81.15l3.66 9.88c4.52,11.98 8.97,23.24 13.36,33.85 4.67,11.3 9.63,22.78 14.78,34.35 4.32,9.69 9.73,21.31 16.12,34.76 4.85,10.21 11.19,23.13 18.85,38.49 8.32,16.69 15,29.9 20.03,39.6 6.08,11.77 12.61,24.13 19.45,36.86 66.92,124.55 157.24,241.06 258.9,372.16l0.25 0.34c26.73,34.47 54.21,69.9 89.86,116.83 33.32,43.87 65.31,86.73 93.43,126 31.63,44.12 64.03,91.01 97.09,141.41 31.84,48.52 64.9,101.48 99.28,159.98 47.22,80.34 90.15,159.38 128.63,237.44z"/>
     </g>
    </g>
    <g style="clip-path:url(#id2)">
     <path class="fil11" d="M13280.21 9801.61c-181.46,-697.35 -71.01,-1261.79 293.29,-1881.43 246.91,-419.98 492.68,-644.06 640.83,-920.02 56.94,-106.12 106.6,-211.52 131.69,-300.83 15.56,-55.38 19.28,-98.84 -3.07,-107.64 -14.88,-5.85 -54.68,2.2 -104.77,17.12 -726.21,216.1 -1353.74,781.68 -1596.99,1504.6 -26.16,628.52 202.69,1234.59 639.02,1688.2zm637.74 -2076.33c-411.03,549.83 -678.24,1176.64 -532.16,1848.47 42.34,194.83 98.09,390.52 262.46,538.07 218.78,-20.14 737.64,-23.39 958.5,-23.39 121.79,0 247.62,26.83 247.62,-35.38l0 -3486.23c0,-52.61 -40.05,-53.89 -82.86,-52.82 -255.6,6.35 -249.72,-2.22 -258.24,132.25 -8.29,131.01 -72.16,284.33 -158.61,438.77 -132.01,235.79 -316.71,474.3 -436.71,640.26zm1097.31 -1158.46l0 3486.23c0,62.21 125.83,35.38 247.62,35.38 220.86,0 739.72,3.25 958.5,23.39 164.37,-147.55 220.12,-343.24 262.46,-538.07 146.08,-671.83 -121.13,-1298.64 -532.16,-1848.47 -120,-165.96 -304.7,-404.47 -436.71,-640.26 -86.45,-154.44 -150.32,-307.76 -158.61,-438.77 -8.52,-134.47 -2.64,-125.9 -258.24,-132.25 -42.81,-1.07 -82.86,0.21 -82.86,52.82zm1280.87 1353.36c364.3,619.64 474.75,1184.08 293.29,1881.43 436.33,-453.61 665.18,-1059.68 639.02,-1688.2 -243.25,-722.92 -870.78,-1288.5 -1596.99,-1504.6 -50.09,-14.92 -89.89,-22.97 -104.77,-17.12 -22.35,8.8 -18.63,52.26 -3.07,107.64 25.09,89.31 74.75,194.71 131.69,300.83 148.15,275.96 393.92,500.04 640.83,920.02z"/>
     <path class="fil9" d="M14315.04 6336.18c-70.18,-112.54 -242.87,-189.89 -370.65,-197.47 -559.09,267.79 -992.9,755.22 -1189.69,1350.52 279.36,-448.66 890.11,-888.81 1399.81,-1024.86 214.37,-57.22 214.48,-41.75 160.53,-128.19zm-76.87 272.63c-592.84,176.41 -1119.92,585.72 -1425.86,1123.42 165.61,207.76 360.18,391.42 577.59,544.89 51.39,-117.82 112.68,-236.33 183.59,-356.94 246.92,-419.98 492.69,-644.06 640.84,-920.03 56.94,-106.11 106.6,-211.52 131.69,-300.83 15.55,-55.37 19.28,-98.84 -3.08,-107.64 -14.87,-5.85 -54.67,2.2 -104.77,17.13zm116.48 476.21c-132.01,235.79 -316.7,474.3 -436.71,640.26 -153.33,205.1 -286.64,420.93 -385.96,645.8 387.98,239.96 838.95,387.78 1322.39,412.94l0 -2217.2c0,-52.61 -40.05,-53.89 -82.87,-52.83 -255.59,6.35 -249.71,-2.23 -258.24,132.25 -8.28,131.02 -72.15,284.33 -158.61,438.78zm660.61 -518.2l0 2221.02c489.72,-2.23 949.73,-130.21 1349.4,-353.31 -101.52,-247.79 -245.27,-484.92 -412.97,-709.25 -120.01,-165.96 -304.7,-404.47 -436.71,-640.26 -86.46,-154.45 -150.33,-307.76 -158.61,-438.78 -8.53,-134.48 -2.65,-125.9 -258.24,-132.25 -42.82,-1.06 -82.87,0.22 -82.87,52.83zm640.04 433.33c148.15,275.97 393.92,500.05 640.84,920.03 85.11,144.78 156.38,286.55 213.29,427.7 224.02,-143.42 426.26,-317.86 600.66,-517.28 -295.55,-586 -850.14,-1034.77 -1478.63,-1221.79 -50.1,-14.93 -89.9,-22.98 -104.77,-17.13 -22.36,8.8 -18.63,52.27 -3.08,107.64 25.09,89.31 74.75,194.72 131.69,300.83zm59.82 -535.78c509.7,136.05 1120.45,576.2 1399.81,1024.86 -196.79,-595.3 -630.6,-1082.73 -1189.69,-1350.52 -127.78,7.58 -300.47,84.93 -370.65,197.47 -53.95,86.44 -53.84,70.97 160.53,128.19zm-369.7 -78.38c98.47,-165.08 141.47,-265.17 332.46,-348.41 -208.96,-71.45 -431.51,-113.6 -662.71,-121.55 1.32,405.81 -30.57,443.16 83.79,449.57 87.71,4.92 165.62,12.76 246.46,20.39zm-574.75 -20.39c114.36,-6.41 82.47,-43.76 83.79,-449.57 -231.2,7.95 -453.75,50.1 -662.71,121.55 190.99,83.24 233.99,183.33 332.46,348.41 80.84,-7.63 158.75,-15.47 246.46,-20.39z"/>
     <path class="fil12" style="mask:url(#id3)" d="M14425.23 6522.36c6.16,-16.64 14.37,-31.34 25.45,-44.6l5.7 -6.39c-5.73,-5.27 -10.72,-11.36 -14.76,-18.1l-1.9 -3.11c-8.26,15.24 -20.35,29.17 -36.87,42.36 -2.88,2.29 -5.91,4.5 -9.12,6.63 9.44,4.9 18.05,10.87 25.83,17.82l5.67 5.39zm472.38 -84.07c3.36,2.3 6.61,4.76 9.74,7.35 10.4,8.59 19.68,18.82 27.62,30.9 7.91,-12.04 17.14,-22.2 27.43,-30.75l0 -0.19c3.11,-2.58 6.32,-5.01 9.65,-7.3 -15.14,-10.84 -27.36,-24.59 -37.24,-42.26 -9.85,17.66 -22.07,31.41 -37.2,42.25zm37.14 3698.11c-13.28,18.29 -30.81,32.18 -51.93,42.49 -16.8,8.2 -35.94,13.57 -57,16.83 -19.62,3.05 -39.64,4.23 -60.15,4.23l-37.19 -1.16c-14.87,-0.61 -24.76,-1.14 -34.72,-1.67l-7.07 -0.37c-14.37,-0.76 -29.16,-1.57 -38.48,-1.92 -14.07,-0.43 -27.36,-0.61 -41.46,-0.63 -67.88,0 -130.06,0.07 -162.2,0.22 -48.69,0.24 -100.28,0.63 -151.6,1.19 -46.41,0.5 -94.91,1.17 -144.19,1.99 -43.52,0.73 -87.78,1.63 -131.87,2.7 -38.03,0.91 -76.23,2.02 -113.89,3.29 -33.33,1.12 -66.6,2.42 -99.4,3.93 -27.22,1.24 -54.51,2.74 -81.52,4.45 -25.88,1.64 -47.57,3.25 -64.34,4.78l-10.56 0.97c-11.37,1.04 -22.5,-0.37 -32.8,-3.8l-0.16 -0.05c-10.76,-3.53 -20.52,-9.23 -28.67,-16.56 -2.55,-2.44 -5.18,-4.72 -7.82,-7.06l-0.08 0.09c-23.25,-20.88 -44.98,-43.06 -65.29,-66.33 -20.06,-22.98 -38.36,-46.67 -55.04,-70.93 -16.51,-23.97 -31.58,-48.71 -45.38,-74.06 -7.67,-14.04 -14.95,-28.35 -21.89,-42.89 -10.57,13.13 -25.27,23.09 -42.77,27.62 -14.51,3.77 -29.03,3.4 -42.3,-0.36 -13.87,-3.91 -26.52,-11.52 -36.53,-21.91l-64.21 -66.72c-56.82,-59.07 -110.04,-120.28 -159.52,-183.31 -49.8,-63.46 -96.5,-129.63 -139.93,-198.21 -43.6,-68.84 -83.33,-139.18 -119.05,-210.69 -35.84,-71.77 -68.22,-145.8 -96.97,-221.75 -28.51,-75.34 -53.24,-152.24 -74.06,-230.38 -20.64,-77.51 -37.49,-156.6 -50.39,-236.94 -12.82,-79.78 -21.66,-160.3 -26.41,-241.23 -4.68,-80.17 -5.4,-161.24 -2,-242.88l0.14 -3.49c0.16,-4.42 0.63,-8.52 1.33,-12.15l0.03 -0.19c0.74,-3.9 1.84,-7.84 3.2,-11.68l1.5 -4.25c30.63,-90.66 66.88,-178.75 108.25,-263.86 9.59,-19.73 19.46,-39.33 29.61,-58.78 -18.42,2.77 -37.91,-0.75 -55,-11.38 -16.01,-9.96 -27.38,-24.69 -33.41,-41.28 -6.13,-16.89 -6.67,-35.66 -0.91,-53.15l63.74 -192.87c25.08,-75.88 54.25,-150.88 87.24,-224.7 33.28,-74.45 69.81,-146.24 109.35,-215.11 40.31,-70.2 83.99,-138.08 130.78,-203.38 46.99,-65.59 97.28,-128.79 150.59,-189.29 53.03,-60.19 109.43,-118.05 168.89,-173.24 59.28,-55.03 121.22,-107.02 185.52,-155.69 63.8,-48.29 130.47,-93.66 199.72,-135.87 68.12,-41.5 139.04,-79.98 212.5,-115.15l5.71 -2.74c6.71,-3.22 13.13,-5.37 19.16,-6.57l2.93 -0.49c5.66,-0.9 11.49,-1.15 17.34,-0.84l6.46 0.35c20.7,1.18 42.49,3.92 64.9,8.05 9.76,1.78 19.5,3.81 29.18,6.06 -2.36,-14.76 -0.64,-30.4 5.79,-45.18 4.66,-10.74 11.38,-19.93 19.4,-27.33 8.44,-7.74 18.33,-13.56 28.94,-17.15l59.11 -20.24c27.82,-9.52 55.7,-18.48 83.55,-26.85 26.35,-7.92 54.81,-15.88 85.3,-23.84 27.93,-7.28 56.54,-14.19 85.81,-20.68 29.15,-6.46 58.01,-12.32 86.48,-17.54 30.2,-5.53 59.44,-10.38 87.6,-14.47 28.65,-4.18 57.86,-7.89 87.56,-11.09 29.79,-3.22 59.15,-5.87 87.99,-7.9 27.58,-1.94 57.26,-3.48 88.97,-4.56l25.77 -0.87c22.1,-0.54 42.42,7.89 57.39,21.96l0.42 0.4c14.59,-13.95 34.38,-22.55 56.16,-22.55 1.92,0 3.83,0.11 5.7,0.33l21.87 0.73c31.71,1.08 61.39,2.62 88.97,4.56 28.84,2.03 58.2,4.68 87.99,7.9 29.7,3.2 58.91,6.91 87.56,11.09 28.16,4.09 57.4,8.94 87.6,14.47 28.47,5.22 57.33,11.08 86.48,17.54 29.27,6.49 57.88,13.4 85.81,20.68 30.49,7.96 58.95,15.92 85.3,23.84 27.85,8.37 55.73,17.33 83.55,26.85l59.11 20.21c21.2,7.18 37.54,22.36 46.74,40.99 7.3,14.77 10.14,31.74 7.43,48.7 9.67,-2.25 19.4,-4.27 29.14,-6.06 22.39,-4.13 44.19,-6.87 64.9,-8.09l7.82 -0.41c6.54,-0.26 12.83,0.21 18.73,1.38 6.64,1.31 13.06,3.48 19.11,6.36 3.66,1.85 7.49,3.5 11.08,5.46 72.09,34.73 141.67,72.62 208.54,113.41 68.85,42.01 135.12,87.14 198.54,135.15 64.3,48.67 126.24,100.66 185.52,155.69 59.46,55.19 115.86,113.05 168.89,173.24 53.3,60.51 103.6,123.7 150.61,189.31 46.78,65.29 90.46,133.16 130.76,203.36 39.54,68.87 76.07,140.66 109.35,215.11 32.99,73.82 62.16,148.82 87.24,224.7l63.76 192.87 1.05 3.66c5.62,20.1 3.08,40.8 -5.77,58.37 -9.4,18.64 -25.85,33.67 -47.1,40.67l-0.36 0.11c-12.35,4.01 -25.02,4.89 -37.15,3.03 10.15,19.45 20.01,39.03 29.6,58.75 41.74,85.88 78.28,174.78 109.07,266.32l1.1 3.25c1.48,4.42 2.52,8.37 3.12,11.83 0.56,3.21 0.91,7.12 1.03,11.52l0.12 2.7c3.41,81.64 2.69,162.71 -1.99,242.88 -4.75,80.93 -13.59,161.45 -26.41,241.23 -12.9,80.34 -29.75,159.43 -50.39,236.94 -20.82,78.14 -45.55,155.04 -74.06,230.38 -28.75,75.95 -61.13,149.98 -96.97,221.75 -35.72,71.51 -75.45,141.85 -119.05,210.69 -43.43,68.58 -90.13,134.75 -139.93,198.21 -49.48,63.03 -102.7,124.24 -159.52,183.31l-64.2 66.74c-15.52,16.12 -36.14,24.42 -56.93,24.83l-0.38 0c-20.62,0.35 -41.42,-7.16 -57.48,-22.61 -2.47,-2.38 -4.75,-4.88 -6.86,-7.49 -6.93,14.49 -14.19,28.77 -21.84,42.78 -13.81,25.35 -28.88,50.11 -45.38,74.07 -16.68,24.26 -34.98,47.95 -55.04,70.94 -20.32,23.27 -42.05,45.45 -65.3,66.32l-9.43 8.15c-8.43,7.26 -17.74,12.46 -27.31,15.62 -10.38,3.43 -21.58,4.61 -32.8,3.59l-10.55 -0.95c-16.77,-1.53 -38.46,-3.14 -64.34,-4.78 -27.01,-1.71 -54.31,-3.21 -81.52,-4.45 -32.8,-1.51 -66.07,-2.81 -99.4,-3.93 -37.66,-1.27 -75.86,-2.38 -113.89,-3.29 -44.09,-1.07 -88.35,-1.97 -131.87,-2.7 -49.28,-0.82 -97.79,-1.49 -144.19,-1.99 -51.32,-0.56 -102.91,-0.95 -151.6,-1.19 -32.14,-0.15 -94.32,-0.22 -162.2,-0.22 -14.08,0.03 -27.4,0.2 -41.46,0.63 -9.36,0.36 -23.96,1.15 -38.35,1.91l-7.09 0.38c-10,0.53 -19.94,1.06 -34.83,1.67l-37.19 1.16c-20.5,0 -40.52,-1.18 -60.14,-4.23 -21.06,-3.26 -40.19,-8.62 -57.01,-16.83 -21.27,-10.4 -38.84,-24.28 -52.06,-42.49zm-860.23 -2446.48l-36.17 49.25 -1.95 2.48 -34.01 46.73 0.14 0.11c-50.74,67.92 -98.61,135.98 -142.93,203.89 -44.66,68.44 -86.87,138.38 -126.11,209.74 -38.77,70.5 -74.42,142.12 -106.39,214.73 -32.04,72.79 -60.17,145.92 -83.84,219.2 -23.52,72.86 -43.04,147.06 -58.06,222.51 -14.93,75.13 -25.25,150.87 -30.4,227.08 -5.13,76.11 -5.19,153.09 0.33,230.81 5.51,77.52 16.64,155.93 33.84,235.1 5.68,26.13 11.1,50.27 15.9,70.05 5.14,21.21 11.06,43.86 18.11,68.56 6.93,24.28 13.83,46.64 20.64,66.25 7.39,21.3 15.43,42.19 24.23,62.5 8.01,18.44 17.15,37.35 27.63,56.74 10.25,18.99 21.08,37.04 32.49,53.87 10.07,14.87 21.51,30.04 34.4,45.5 7.99,9.57 16.29,18.9 24.92,27.96l40.22 -2.52c21.79,-1.27 46.83,-2.54 74.64,-3.77 29.32,-1.32 62.04,-2.56 97.17,-3.72 35.39,-1.17 73.23,-2.25 112.62,-3.2 43.58,-1.07 88.95,-1.98 134.67,-2.77 49.29,-0.84 99.08,-1.53 147.66,-2.06 59.37,-0.65 114.27,-1.11 163.17,-1.4 83.03,-0.51 128.22,-0.7 149.31,-0.7 26.75,0 60.17,1.77 91.81,3.44l2.56 0.13c15.78,0.84 31.02,1.65 47.57,2l0 -3368.48 -17.82 0.42c-22.57,0.5 -42.53,0.96 -62.04,1.6 -16.22,0.52 -31.31,1.24 -46.5,2.35l-1.95 0.14c-0.63,9.42 -1.42,18.97 -1.86,28.4 -1.18,18.93 -3.45,38.71 -6.7,59.22 -3.07,19.41 -7.16,39.56 -12.14,60.27 -5.14,21.38 -10.74,41.63 -16.73,60.8 -6.19,19.87 -13.24,40.22 -21.03,60.94l-0.95 2.34c-7.85,20.81 -15.59,40.01 -23.24,57.76 -7.65,17.74 -17.02,38.16 -27.94,60.97 -11.3,23.61 -21.43,43.96 -30.49,61.35 -10.16,19.51 -21.07,39.63 -32.6,60.22 -110.61,197.58 -255.99,395.24 -372.04,553.02l-0.14 0.19zm506.4 -1415l69.33 -6.46c15.66,-1.33 33.72,-2.76 55.2,-4.29 13.57,-0.98 28.61,-1.97 45.57,-2.96 1.97,-22.52 1.35,-61.79 0.23,-124.84 -0.27,-2.09 -0.41,-4.22 -0.41,-6.39l0.22 -4.67 -1.45 -97.35 -6.73 0.58c-21.5,1.87 -40.95,3.81 -58.4,5.79 -24.35,2.76 -49.12,6.02 -74.22,9.72 -26.42,3.91 -50.85,7.93 -73.25,12.04 -20.02,3.66 -41.56,7.99 -64.61,12.96l-32.53 7.25c11.79,11.81 22.63,23.71 32.75,35.77 21.58,25.69 40.8,52.94 59.59,82.24 15.27,23.82 31.4,51.08 48.71,80.61zm-394.42 72.23l-3.4 -2.98c-9.51,-8.21 -20.41,-16.42 -32.36,-24.48 -12.84,-8.66 -25.62,-16.35 -38.11,-23 -13.14,-6.99 -27.43,-13.68 -42.5,-19.92 -15.33,-6.36 -30.09,-11.71 -44,-15.97 -13.03,-3.98 -26.12,-7.35 -39.06,-10.03l-0.18 -0.04c-7.89,-1.6 -15.62,-2.96 -23.12,-4.04 -59.95,29.7 -118.42,62.11 -175.2,97.04 -62.27,38.31 -121.37,78.72 -177.08,121.02 -57.45,43.64 -113.36,90.76 -167.46,141.1 -53.22,49.51 -104.36,102.11 -153.15,157.49 -18.21,20.67 -35.87,41.45 -52.99,62.34 20.77,-16.07 41.62,-31.76 62.52,-47.05 67.2,-49.2 135.82,-95.37 204.85,-137.84 68.7,-42.25 139.18,-81.68 210.49,-117.62 70.13,-35.34 140.33,-66.87 209.61,-93.92 68.12,-26.61 135.79,-49.06 202.1,-66.75l59.04 -15.35zm41.25 375.35c-73.4,23.34 -145.81,50.48 -216.84,81.16 -84.88,36.65 -167.36,78.16 -246.81,124.08 -80.39,46.45 -157.97,97.49 -232.15,152.66 -73.94,55 -144.89,114.43 -212.23,177.88 -66.18,62.37 -128.85,128.64 -187.37,198.41 -58.07,69.22 -111.74,141.4 -160.45,216.14 -47.94,73.57 -91.35,149.76 -129.7,228.19 -36.52,74.69 -68.78,152.21 -96.34,232.24 -2.45,70.61 -1.49,141.28 2.8,211.72 4.45,73.26 12.49,145.69 24.01,217.01 11.59,71.88 26.97,143.63 46.02,214.95 19.02,71.25 41.53,141.2 67.4,209.56 23.1,61.07 49.34,121.74 78.58,181.78 28.98,59.53 60.68,117.77 95,174.5 13.61,22.5 27.47,44.53 41.55,66.08 -4.94,-48.74 -8.39,-97.47 -10.34,-146.22 -3.05,-76.74 -2.28,-152.06 2.26,-226.2 4.56,-74.48 12.94,-148.24 25.02,-221.52 13.21,-80.04 30.88,-159.46 52.92,-238.56 21.97,-78.9 48.34,-157.57 78.95,-236.29 30.6,-78.66 65.31,-157.08 104.03,-235.62 38.49,-78.07 81.41,-157.11 128.62,-237.43 34.4,-58.51 67.46,-111.47 99.29,-159.98 33.06,-50.4 65.47,-97.29 97.08,-141.42 60.61,-84.62 123.68,-165.96 183.08,-242.57l0.46 -0.59c101.66,-131.11 191.98,-247.61 258.85,-372.19 7.19,-13.39 13.88,-26.03 19.95,-37.73 5.21,-10.07 11.64,-22.72 19.59,-38.69 6.25,-12.53 12.47,-25.28 18.57,-38.11l1.27 -2.49c5.9,-12.42 11.02,-23.44 15.12,-32.66 5.18,-11.58 10.13,-23.07 14.8,-34.35 4.39,-10.62 8.84,-21.89 13.34,-33.85l3.67 -9.89zm1634.98 1059.58l-31.36 -42.97 -0.09 0.06 -36.31 -49.45c-116.07,-157.79 -261.45,-355.46 -372.04,-553.01 -11.53,-20.61 -22.44,-40.74 -32.59,-60.22 -9.01,-17.33 -19.14,-37.64 -30.49,-61.35 -10.91,-22.79 -20.3,-43.24 -27.95,-60.98 -8.3,-19.25 -16.38,-39.29 -24.19,-60.09 -7.78,-20.73 -14.83,-41.09 -21.03,-60.94 -5.98,-19.16 -11.58,-39.42 -16.72,-60.79 -4.98,-20.7 -9.06,-40.82 -12.14,-60.24 -3.25,-20.49 -5.53,-40.25 -6.72,-59.16 -0.47,-9.49 -1.21,-19.01 -1.85,-28.49l-1.95 -0.15c-15.18,-1.11 -30.28,-1.83 -46.49,-2.35 -19.51,-0.64 -39.48,-1.1 -62.05,-1.6l-17.82 -0.42 0 3368.48c16.55,-0.35 31.79,-1.16 47.57,-2l2.56 -0.12c31.64,-1.68 65.06,-3.45 91.81,-3.45 21.09,0 66.28,0.19 149.31,0.7 48.9,0.29 103.8,0.75 163.17,1.4 48.58,0.53 98.37,1.22 147.66,2.06 45.72,0.79 91.09,1.7 134.67,2.77 39.39,0.95 77.23,2.03 112.62,3.2 35.13,1.16 67.85,2.4 97.17,3.72 27.81,1.23 52.85,2.5 74.64,3.77l40.23 2.52c8.63,-9.06 16.93,-18.39 24.91,-27.95 12.9,-15.45 24.33,-30.63 34.4,-45.51 11.42,-16.83 22.24,-34.88 32.5,-53.87 10.47,-19.38 19.62,-38.3 27.62,-56.74 8.81,-20.31 16.84,-41.2 24.23,-62.5 6.82,-19.63 13.72,-41.97 20.64,-66.25 7.04,-24.68 12.99,-47.36 18.12,-68.57 4.81,-19.85 10.21,-43.86 15.89,-70.04 17.21,-79.17 28.33,-157.58 33.85,-235.1 5.52,-77.73 5.46,-154.7 0.32,-230.81 -5.14,-76.21 -15.45,-151.94 -30.39,-227.07 -15.02,-75.45 -34.54,-149.66 -58.07,-222.52 -23.66,-73.27 -51.79,-146.41 -83.84,-219.19 -31.97,-72.62 -67.61,-144.23 -106.38,-214.74 -39.24,-71.36 -81.47,-141.31 -126.13,-209.74 -44.31,-67.92 -92.2,-135.96 -142.95,-203.86l-4.34 -6.44zm-449.4 -1310.62l5.62 6.31c11.07,13.22 19.27,27.88 25.42,44.47l4.78 -4.6c7.92,-7.21 16.82,-13.4 26.73,-18.51 -3.2,-2.12 -6.23,-4.32 -9.1,-6.61l-3.43 -3c-14.79,-12.37 -25.77,-25.31 -33.41,-39.34l-1.63 2.77c-4.16,7.05 -9.23,13.24 -14.98,18.51zm-124.61 -196.54c17.32,-29.54 33.46,-56.82 48.7,-80.6 18.8,-29.31 38.01,-56.55 59.59,-82.25 10.11,-12.06 20.95,-23.96 32.75,-35.77l-32.53 -7.25c-23.05,-4.97 -44.59,-9.3 -64.61,-12.96 -22.4,-4.11 -46.83,-8.13 -73.25,-12.04 -25.1,-3.7 -49.87,-6.96 -74.22,-9.72 -17.45,-1.98 -36.9,-3.92 -58.4,-5.79l-6.74 -0.58 -1.44 97.36 0.22 4.64c0,2.14 -0.14,4.26 -0.41,6.32l0 0.27c-1.11,62.96 -1.74,102.13 0.25,124.66 16.95,1 31.99,1.98 45.55,2.96 21.48,1.53 39.54,2.96 55.2,4.29l69.34 6.46zm394.41 72.23l59.04 15.4c66.31,17.64 133.98,40.09 202.1,66.7 69.28,27.05 139.48,58.58 209.61,93.92 71.31,35.94 141.79,75.37 210.49,117.62 69.03,42.47 137.65,88.64 204.85,137.84 20.9,15.29 41.75,30.98 62.52,47.05 -17.12,-20.89 -34.78,-41.67 -52.99,-62.34 -48.79,-55.39 -99.93,-107.99 -153.15,-157.5 -54.1,-50.34 -110.01,-97.45 -167.46,-141.09 -55.71,-42.3 -114.81,-82.71 -177.08,-121.02 -56.78,-34.93 -115.24,-67.34 -175.2,-97.04 -7.5,1.08 -15.23,2.44 -23.11,4.08l-1.81 0.34c-12.41,2.62 -24.95,5.88 -37.44,9.69 -13.91,4.26 -28.67,9.61 -44,15.97 -15.07,6.24 -29.36,12.93 -42.5,19.92 -12.49,6.65 -25.27,14.34 -38.11,23 -11.95,8.06 -22.85,16.27 -32.36,24.48l-3.4 2.98zm-41.24 375.36l3.66 9.88c4.52,11.98 8.97,23.23 13.36,33.85 4.67,11.29 9.63,22.78 14.78,34.35 4.32,9.69 9.73,21.31 16.12,34.76 4.85,10.21 11.19,23.13 18.85,38.49 8.32,16.68 15,29.89 20.03,39.6 6.08,11.77 12.61,24.12 19.45,36.86 66.92,124.55 157.24,241.05 258.9,372.16l0.25 0.34c26.73,34.47 54.21,69.9 89.86,116.83 33.32,43.87 65.31,86.73 93.43,125.99 31.63,44.13 64.03,91.02 97.09,141.42 31.84,48.52 64.9,101.48 99.28,159.98 47.22,80.33 90.15,159.38 128.63,237.44 38.72,78.54 73.43,156.96 104.02,235.61 30.63,78.74 57,157.38 78.97,236.29 22.03,79.09 39.7,158.51 52.9,238.56 12.09,73.27 20.47,147.03 25.03,221.52 4.54,74.14 5.31,149.48 2.25,226.2 -1.94,48.75 -5.4,97.48 -10.34,146.22 14.08,-21.55 27.94,-43.58 41.55,-66.08 34.32,-56.73 66.02,-114.97 95,-174.5 29.24,-60.04 55.48,-120.71 78.58,-181.78 25.87,-68.36 48.38,-138.31 67.4,-209.56 19.05,-71.32 34.43,-143.07 46.02,-214.95 11.52,-71.32 19.56,-143.75 24.01,-217.01 4.29,-70.44 5.25,-141.11 2.8,-211.72 -27.56,-80.03 -59.82,-157.55 -96.34,-232.24 -38.35,-78.43 -81.76,-154.62 -129.7,-228.19 -48.71,-74.74 -102.38,-146.92 -160.45,-216.14 -58.52,-69.77 -121.19,-136.04 -187.38,-198.41 -67.33,-63.45 -138.28,-122.88 -212.22,-177.88 -74.18,-55.17 -151.76,-106.21 -232.15,-152.66 -79.45,-45.92 -161.93,-87.43 -246.81,-124.08 -71.03,-30.68 -143.44,-57.82 -216.83,-81.15z"/>
    </g>
   </g>
   <path class="fil11" d="M13917.95 7725.28c120,-165.96 304.7,-404.47 436.7,-640.26 86.46,-154.44 150.33,-307.75 158.62,-438.77 8.52,-134.48 2.64,-125.9 258.23,-132.25 42.82,-1.06 82.87,0.21 82.87,52.82l0 3486.23c0,62.21 -125.83,35.37 -247.62,35.37 -220.86,0 -739.72,3.26 -958.49,23.4 -164.38,-147.55 -220.13,-343.24 -262.47,-538.07 -146.08,-671.83 121.12,-1298.64 532.16,-1848.47zm606.26 -1339.28c-98.47,-165.08 -141.47,-265.17 -332.45,-348.41 208.95,-71.45 431.5,-113.6 662.7,-121.55 -1.32,405.81 30.57,443.16 -83.79,449.57 -87.7,4.92 -165.62,12.76 -246.46,20.39zm-209.16 -49.81c53.94,86.44 53.84,70.97 -160.53,128.19 -509.7,136.05 -1120.45,576.2 -1399.8,1024.86 196.78,-595.31 630.59,-1082.74 1189.67,-1350.52 127.78,7.58 300.47,84.93 370.66,197.47zm-76.88 272.63c50.1,-14.93 89.9,-22.98 104.77,-17.14 22.36,8.8 18.63,52.28 3.08,107.65 -25.09,89.31 -74.75,194.71 -131.69,300.82 -148.15,275.97 -393.92,500.05 -640.83,920.03 -364.3,619.64 -474.75,1184.08 -293.29,1881.42 -436.33,-453.6 -665.18,-1059.67 -639.02,-1688.19 243.25,-722.93 870.78,-1288.51 1596.98,-1504.59zm1713.51 1116.46c-120,-165.96 -304.7,-404.47 -436.7,-640.26 -86.46,-154.44 -150.33,-307.75 -158.62,-438.77 -8.52,-134.48 -2.64,-125.9 -258.23,-132.25 -42.82,-1.06 -82.87,0.21 -82.87,52.82l0 3486.23c0,62.21 125.83,35.37 247.62,35.37 220.86,0 739.72,3.26 958.49,23.4 164.38,-147.55 220.13,-343.24 262.47,-538.07 146.08,-671.83 -121.12,-1298.64 -532.16,-1848.47zm-606.26 -1339.28c98.47,-165.08 141.47,-265.17 332.45,-348.41 -208.95,-71.45 -431.5,-113.6 -662.7,-121.55 1.32,405.81 -30.57,443.16 83.79,449.57 87.7,4.92 165.62,12.76 246.46,20.39zm209.16 -49.81c-53.94,86.44 -53.84,70.97 160.53,128.19 509.7,136.05 1120.45,576.2 1399.8,1024.86 -196.78,-595.31 -630.59,-1082.74 -1189.67,-1350.52 -127.78,7.58 -300.47,84.93 -370.66,197.47zm76.88 272.63c-50.1,-14.93 -89.9,-22.98 -104.77,-17.14 -22.36,8.8 -18.63,52.28 -3.08,107.65 25.09,89.31 74.75,194.71 131.69,300.82 148.15,275.97 393.92,500.05 640.83,920.03 364.3,619.64 474.75,1184.08 293.29,1881.42 436.33,-453.6 665.18,-1059.67 639.02,-1688.19 -243.25,-722.93 -870.78,-1288.51 -1596.98,-1504.59z"/>
   <g>
    <polygon class="fil13" points="11302.98,5984.45 11146.01,6328.3 10766.42,6374.29 11044.93,6629.83 10971.37,7005.05 11300.47,6819.14 11634.6,7005.05 11559.49,6634.61 11839.55,6374.29 11464.02,6331.25 "/>
    <polygon class="fil13" points="18395.95,5984.45 18238.97,6328.3 17859.39,6374.29 18137.89,6629.83 18064.33,7005.05 18393.44,6819.14 18727.56,7005.05 18652.45,6634.61 18932.51,6374.29 18556.98,6331.25 "/>
   </g>
  </g>
 </g>
</svg>
